<?xml version="1.0" encoding="utf-8"?>
<!-- Generator: Adobe Illustrator 24.1.0, SVG Export Plug-In . SVG Version: 6.00 Build 0)  -->
<svg version="1.1" id="Calque_1" xmlns="http://www.w3.org/2000/svg" xmlns:xlink="http://www.w3.org/1999/xlink" x="0px" y="0px"
	 viewBox="0 0 595.28 595.28" style="enable-background:new 0 0 595.28 595.28;" xml:space="preserve">
<style type="text/css">
	.st0{fill:#F8FBFB;}
	.st1{fill:#15718D;}
	.st2{fill:#C9B596;}
	.st3{fill:#FFFFFF;}
</style>
<path class="st0" d="M809.88-76.87c-127.91,0-255.82-0.01-383.73-0.01c-213.35,0-426.7,0-640.05,0.01c0.05-1.65-0.62-3.87,2.51-3.02
	c0.62,0.17,1.33,0.02,1.99,0.02c338.26,0,676.52,0,1014.79,0.04C807.31-79.83,810.69-81.33,809.88-76.87z"/>
<path class="st1" d="M775.09,887.72c-11.53,3.24-18.23,9.31-21.04,21.04c-3.3-11.14-9.32-18.05-21.27-20.74
	c11.4-3.29,18.26-9.38,20.93-21.36C757.01,878.18,763.11,885.02,775.09,887.72z"/>
<path class="st0" d="M299.13,542.25c1.74-1.3,3.93-0.98,5.87-1.6c2.86-0.91,5.61-1.97,8.11-3.63c0.42,0.84-0.29,1.11-0.78,1.39
	C308.24,540.77,303.91,542.31,299.13,542.25z"/>
<path class="st0" d="M316.8,534.4c0.49-1.37,1.46-2.35,2.57-3.22C319.21,532.8,318.13,533.7,316.8,534.4z"/>
<path class="st0" d="M315.19,536.08c0.41-0.73,0.51-1.75,1.69-1.74C316.83,535.42,315.9,535.64,315.19,536.08z"/>
<path class="st1" d="M-718.96,250.71c0.17,6.5-0.63,12.89,0.31,19.5c2.52-4.95,4.77-6.35,8.33-5.37c3.1,0.85,4.9,3.31,4.76,6.46
	c-0.16,3.43-2.24,5.18-7.32,5.94c4.38,4.53,8.55,8.99,12.9,13.27c1.77,1.74,2.87,0.25,3.8-1.31c1.59-2.66,3.66-4.57,7.09-3.91
	c2.99,0.57,4.84,2.41,5.33,5.38c0.45,2.7-0.53,4.95-2.98,6.34c-2.68,1.52-5.25,0.97-7.55-0.85c-1.68-1.33-2.77-3.72-5.61-2.62
	c-0.3,0.12-0.97-0.36-1.29-0.72c-5.39-6.2-11.69-11.49-17.97-18.17c0,4.44-0.01,8.19,0,11.95c0,1.08,0.83,1.62,1.55,2.21
	c3.15,2.55,5.87,5.53,8.66,8.45c0.94,0.98,0.68,1.88,0.67,2.82c-0.04,20.09-0.08,40.17-0.24,60.26c-0.02,2.6,0.45,3.98,3.37,3.43
	c1.71-0.33,2.32,0.46,2.46,2.21c0.69,8.92-0.14,9.77-9.07,9.19c-1.57-0.1-2.33-0.66-2.32-2.19c0.01-2.5,0.05-4.99,0.14-7.49
	c0.03-0.67-0.04-1.79,0.9-1.71c3.2,0.26,2.47-2,2.48-3.71c0.06-19.67,0.07-39.34,0.19-59.01c0.01-1.94-0.53-3.3-1.97-4.55
	c-2.59-2.25-5.01-4.69-7.61-6.93c-1.08-0.93-1.34-1.95-1.34-3.27c0.05-10.94,0.46-21.89-0.02-32.8c-0.44-9.87,0.68-19.75-0.5-29.59
	c-0.14-1.18,0.31-1.98,1.12-2.74c1.06-0.99,2.1-2.02,3.12-3.06c1.85-1.87,3.63-3.34,2.73-6.79c-1.05-3.98,2.21-7.31,6.06-7.35
	c3.7-0.04,6.64,3.29,6.22,7.05c-0.44,3.95-4.05,6.57-8.1,5.58c-1.37-0.33-2.16-0.11-2.94,0.87c-0.06,0.08-0.13,0.17-0.21,0.23
	c-4.41,3.31-6.31,7.56-5.58,13.16c0.41,3.13,0.07,6.35,0.07,9.61c4.42-1.85,6.97-1.63,8.97,0.67c1.92,2.2,2.15,5.37,0.56,7.83
	C-711.55,251.7-713.96,252.19-718.96,250.71z"/>
<g>
	<path class="st2" d="M345.85,194.39c0.45-0.08,0.91-0.15,1.36-0.23c0,0-0.1,0.09-0.1,0.09c0.12-0.21,0.25-0.42,0.37-0.63
		c0.72,0.47,1.45,0.57,2.31,0.33c3.61-1.01,7.37-1.21,11.02-2.27c15.03-4.39,29.45-10.09,42.68-18.54
		c4.95-3.16,10.28-5.82,14.41-10.16l-0.09,0.08c4.56-2.43,8.4-5.76,11.94-9.47c0,0-0.08,0.09-0.08,0.09
		c6.49-4.5,11.75-10.34,17.21-15.93c3.22-3.29,6.62-6.45,9.1-10.41c0,0-0.08,0.1-0.08,0.1c1.55-0.6,2.24-2.09,3.18-3.26
		c6.33-7.89,12.78-15.7,18.16-24.31c0,0-0.07,0.09-0.07,0.09c2.53-1.6,5.53-1.13,8.27-1.87c5.05-1.37,10.19-2.43,15.3-3.62
		c0.5-0.28,1-0.56,1.49-0.84c1.24,0.4,2.48,0.17,3.7-0.09c4.98-1.03,9.99-1.96,14.92-3.2c2.46-0.62,2.92-0.34,2.14,2.2
		c-2.7,8.73-5.82,17.31-9.67,25.6c-2.74,5.9-5.68,11.7-8.53,17.54c0,0,0.07-0.08,0.07-0.08c-2.55,3.09-4.61,6.47-6.31,10.09
		c0,0,0.07-0.08,0.07-0.08c-0.78,0.02-0.95,0.72-1.26,1.2c-4.88,7.44-10.27,14.5-15.95,21.35c-0.62,0.75-1.64,1.33-1.6,2.53
		c0,0,0.06-0.06,0.06-0.06c-0.88,0-1.24,0.52-1.32,1.33c0,0,0.08-0.09,0.08-0.09c-2.14,1.5-3.77,3.47-5.08,5.71
		c0,0,0.08-0.09,0.08-0.09c-2.56,2.28-5.43,4.28-6.93,7.54c0,0,0.01-0.01,0.01-0.01c-2.18,0.44-3.24,2.19-4.4,3.81
		c0,0,0.08-0.08,0.08-0.08c-0.49-0.03-0.74,0.2-0.7,0.7c0,0,0.07-0.07,0.07-0.07c-0.53-0.08-0.76,0.16-0.7,0.69
		c0,0,0.07-0.07,0.07-0.07c-2.06,1.07-3.74,2.57-5.08,4.46c0,0,0.09-0.08,0.09-0.08c-4.36,3.1-8.46,6.55-12.5,10.05
		c-0.8,1.57-2.35,2.2-3.75,3.01c-1.61,0.4-2.84,1.36-3.85,2.63c0,0,0.09-0.09,0.09-0.09c-5.17,2.93-10.24,6.01-15.09,9.46
		c0,0,0.09-0.07,0.09-0.07c-1.71,0.48-3.3,1.14-4.47,2.56c0,0,0.09-0.06,0.09-0.06c-0.82-0.2-1.38,0.36-2.01,0.68
		c-10.7,5.56-21.7,10.41-33.09,14.36c-17.45,6.06-35.38,9.91-53.76,11.67c-1.47,0.14-2.49,0.23-2.46,2.23
		c0.28,19.88,0.45,39.77,0.69,59.66c0.01,0.78-0.43,2.06,1.19,1.96c0.11,0.5,0.5,0.56,0.92,0.6c9.77,0.95,19.42,2.59,28.98,4.89
		c3.98,0.96,7.79,2.72,11.98,2.76c0.22,0.02,0.45,0.04,0.67,0.06c0.41,1.25,1.64,1.14,2.55,1.47c3.6,1.31,7.29,2.39,10.84,3.82
		c15.09,6.06,29.6,13.15,43.39,21.94c9.11,5.81,17.78,12.1,26.42,18.51c3.15,2.34,5.81,5.31,9.31,7.18c0,0-0.08-0.09-0.08-0.09
		c1.25,2,3.17,3.22,5.08,4.47c0,0-0.1-0.1-0.1-0.1c2.66,3.04,5.55,5.84,8.84,8.21l-0.07-0.08c-0.05,0.52,0.18,0.75,0.7,0.69
		c0,0-0.07-0.07-0.07-0.07c-0.03,0.49,0.21,0.73,0.7,0.69c0,0-0.07-0.07-0.07-0.07c-0.08,0.54,0.17,0.76,0.69,0.69
		c0,0-0.07-0.07-0.07-0.07c-0.02,0.49,0.19,0.74,0.7,0.7c0,0-0.07-0.08-0.07-0.08c0.43,1.29,1.31,2.12,2.57,2.58
		c0,0-0.07-0.08-0.07-0.08c-0.06,0.53,0.14,0.79,0.69,0.69c0,0-0.07-0.06-0.07-0.06c-0.05,0.51,0.18,0.74,0.69,0.69
		c0,0-0.06-0.07-0.06-0.07c-0.07,1.01,0.84,1.35,1.36,1.93c4.87,5.38,9.75,10.75,14.66,16.08c0.87,0.94,1.34,2.34,2.8,2.68
		c0,0-0.07-0.07-0.07-0.07c-0.05,1.21,0.97,1.77,1.6,2.53c10.3,12.4,19.85,25.37,29.06,38.59c7.55,10.85,2.23,24.38-10.6,27.08
		c-9.76,2.05-19.57,3.85-29.35,5.77c-6.51,1.28-7.44,0.81-11.16-4.52c-3.78-5.41-7.46-10.91-12.18-15.6c0,0,0.07,0.08,0.07,0.08
		c-0.42-1.42-1.26-2.5-2.57-3.22c0,0,0.07,0.09,0.07,0.09c-0.38-1.45-1.25-2.51-2.57-3.2c0,0,0.08,0.09,0.08,0.09
		c-0.65-1.63-1.73-2.9-3.2-3.84c0,0,0.09,0.09,0.09,0.09c-0.04-0.43-0.24-0.71-0.71-0.71c0,0,0.07,0.08,0.07,0.08
		c-2.42-3.82-5.52-7.04-8.82-10.09c0,0,0.08,0.1,0.08,0.1c-0.03-0.45-0.24-0.7-0.71-0.71c0,0,0.09,0.08,0.09,0.08
		c-5.59-6.96-12.02-13.09-18.84-18.82l0.08,0.08c0-0.47-0.26-0.68-0.71-0.71c0,0,0.09,0.09,0.09,0.09
		c-5.37-5.6-11.2-10.68-17.59-15.09c0,0,0.09,0.09,0.09,0.09c-5.47-4.92-11.26-9.41-17.59-13.19c0,0,0.08,0.07,0.08,0.07
		c-2.98-2.86-6.36-5.15-10.06-6.96c0,0,0.08,0.08,0.08,0.08c-3.43-2.88-7.15-5.28-11.33-6.93c0,0,0.08,0.06,0.08,0.06
		c-3.4-3.11-7.7-4.71-11.68-6.81c-11.11-5.86-22.66-10.75-34.62-14.64c-1.87-0.61-2.59-0.47-2.5,1.76c0.2,5.2,0.14,10.41,0.25,15.61
		c0.02,0.81-0.48,2,0.98,2.22c0,0.35,0,0.7,0.01,1.05c-0.95,0.54-0.63,1.45-0.63,2.24c0.21,33.05,1.46,66.06,3.25,99.06
		c0.04,0.77-0.51,2.04,1.08,2.07c0.52,3.38,0.8,6.78,0.6,10.2c-0.29,0.18-1.02-1.37-0.95,0.22c0.12,2.9,0.53,5.82,0.37,8.7
		c-0.32,5.66,1.9,11.24,0.19,16.97c-0.98,3.3-2.5,6.31-3.84,9.43c0,0,0.08-0.1,0.08-0.1c-1.11,0.87-2.09,1.85-2.57,3.22
		c0,0,0.07-0.07,0.07-0.07c-1.17-0.01-1.28,1.01-1.69,1.74c-0.7,0.31-1.4,0.63-2.09,0.94c-2.5,1.66-5.25,2.72-8.11,3.63
		c-1.94,0.62-4.13,0.3-5.87,1.6c-1.54,0.68-3.09,0.39-4.63,0.02c-0.6-1.13-1.77-0.88-2.74-1.11c-13.35-3.08-21.11-12.99-20.67-26.68
		c0.32-9.87,0.97-19.74,1.19-29.61c0.11-5.15,1.19-10.29,0.23-15.45c0.24-1.46,0.49-2.92,0.73-4.38c-0.58-2.48,0.38-4.9,0.38-7.37
		c-0.01-1.85-1.58-3.29-0.86-5.3c1.28-3.54,1.46-7.28,1.5-11.03c0.06-4.89,0.14-9.77,0.28-14.66c0.63-22.14,1.29-44.27,1.95-66.4
		c0.03-1.04-0.36-2.39-1.34-1.76c-1.8,1.15-3.6,0.4-5.36,0.68c-25.45,4.16-49.38,12.55-71.67,25.54c-3.45,2.01-7.08,3.79-10.03,6.57
		c0,0,0.09-0.08,0.09-0.08c-4.57,2.4-8.86,5.21-12.58,8.83c0,0,0.09-0.08,0.09-0.08c-5.23,3.02-9.59,7.1-13.84,11.32
		c0,0,0.09-0.09,0.09-0.09c-0.45,0.02-0.69,0.26-0.71,0.71c0,0,0.08-0.07,0.08-0.07c-0.49-0.02-0.76,0.17-0.7,0.7
		c0,0,0.07-0.08,0.07-0.08c-2.49,1.48-4.64,3.35-6.32,5.72c0,0,0.09-0.08,0.09-0.08c-1.26,0.45-2.19,1.24-2.57,2.57
		c0,0,0.06-0.06,0.06-0.06c-0.88-0.01-1.31,0.43-1.31,1.31c0,0,0.06-0.06,0.06-0.06c-2.22,1.16-3.79,2.97-5.06,5.07
		c0,0,0.07-0.07,0.07-0.07c-2.9,1.99-5.02,4.69-6.96,7.57c0,0,0.08-0.08,0.08-0.08c-0.87,0.04-1.13,0.83-1.59,1.34
		c-8.66,9.74-16.71,19.95-23.59,31.02c-1.81,2.92-4.19,3.89-7.29,4.38c-3.85,0.61-7.81,0.79-11.47,2.34
		c-0.88,0.02-1.77,0.04-2.65,0.06c-0.85-0.01-1.18,1.17-2.12,0.96c-3.13-0.72-6.01,0.61-8.98,1.14c-1.89,1.27-3.99,1.82-6.25,1.88
		c-1.19-0.43-2.05,0.52-3.09,0.72c-0.87,0.16-1.84,1.19-2.59-0.21c2.76-6.87,5.42-13.78,8.3-20.6c2.67-6.3,4.96-12.67,5.26-19.59
		c0,0,0.1-0.28,0.1-0.28l0.27-0.01c0,0-0.09,0-0.09,0c1.36-3.06,2.48-6.25,4.12-9.14c5.04-8.89,11.18-17.04,17.38-25.15
		c3.5-4.59,7.86-8.45,11.01-13.32c0,0-0.07,0.08-0.07,0.08c0.77-0.12,1.29-0.48,1.32-1.33c0,0-0.08,0.09-0.08,0.09
		c3.68-3.05,7.13-6.32,10.07-10.09c0,0-0.08,0.08-0.08,0.08c2.07-0.86,3.34-2.71,4.99-4.09c5.08-4.23,10.07-8.56,15.1-12.86
		c0,0-0.08,0.08-0.08,0.08c4.92-2.93,9.44-6.41,13.84-10.06c0,0-0.08,0.07-0.08,0.07c2-0.58,3.65-1.73,5.09-3.2
		c0,0-0.1,0.09-0.1,0.09c1.4-0.21,2.39-1.21,3.52-1.91c31.32-19.27,65.19-31.2,101.74-35.43c1.7-1.28,3.7-0.5,5.54-0.81
		c1.31-0.99,0.95-2.44,0.97-3.75c0.3-17.48,0.57-34.97,0.86-52.45c0.12-7.11,0.12-6.97-7.11-7.59c-5.52-0.47-11.01-1.33-16.51-2.02
		c-0.61,0.08-1.23,0.16-1.84,0.24c0,0,0.17,0,0.17,0c-0.43-0.06-0.85-0.12-1.28-0.18c-0.45-0.81-1.18-0.99-2.05-1.15
		c-3.15-0.59-6.31-1.17-9.4-1.98c-24.08-6.29-46.3-16.59-66.59-31.04c-0.74-0.53-1.38-1.3-2.42-1.26c0,0,0.09,0.07,0.09,0.07
		c-3.11-3.37-7.08-5.69-10.59-8.57c-2.7-2.22-5.03-4.93-8.24-6.52c0,0,0.09,0.08,0.09,0.08c-0.06-0.42-0.22-0.73-0.72-0.69
		l0.07,0.07c0.05-0.52-0.2-0.73-0.7-0.69c0,0,0.09,0.08,0.09,0.08c-2.86-3.26-5.94-6.28-9.46-8.82l0.07,0.07
		c-0.43-1.28-1.29-2.14-2.57-2.57c0,0,0.07,0.07,0.07,0.07c-0.03-0.84-0.49-1.27-1.32-1.33c0,0,0.07,0.07,0.07,0.07
		c-5.01-6.07-10.27-11.9-15.71-17.59c0,0,0.09,0.09,0.09,0.09c-0.74-1.55-1.57-3.03-3.22-3.82c0,0,0.06,0.07,0.06,0.07
		c-0.17-1.22-0.85-2.06-1.94-2.59c0,0,0.09,0.09,0.09,0.09c-2.85-4.07-5.71-8.13-8.55-12.2c-11.53-16.53-20.34-34.45-27.13-53.38
		c-1.16-3.22-0.72-4,2.82-3.78c5.37,0.33,10.47-1.36,15.9-1.28c11.72,0.16,23.46-1.11,35.18-1.91c2.6-0.18,4.17,0.68,5.5,2.98
		c4.38,7.55,9.13,14.88,14.52,21.76c2.39,3.06,4.31,6.53,7.48,8.95c0,0-0.06-0.07-0.06-0.07c1.57,2.98,3.62,5.54,6.32,7.57
		c0,0-0.07-0.08-0.07-0.08c-0.12,1.01,0.75,1.44,1.26,2.03c5.03,5.83,10.37,11.37,15.98,16.64c1.48,1.39,2.64,3.2,4.7,3.89
		c0,0-0.08-0.07-0.08-0.07c5.02,5.69,11.09,10.2,17.06,14.77c5.16,3.95,10.23,8.05,16.13,10.92c0,0-0.08-0.07-0.08-0.07
		c0.05,0.93,0.92,1.05,1.48,1.42c14.94,9.84,31.17,16.68,48.6,20.68c3.49,0.8,3.84,0.59,3.87-3c0.1-10.51,0.19-21.02,0.2-31.54
		c0.02-32.58,0.02-65.16-0.02-97.74c-0.01-4.98,1.93-8.59,6.55-10.68c0.99-0.45,1.88-1.13,2.81-1.7c3.71-1.39,7.27-0.83,10.85,0.63
		c11.23,4.56,19.96,17.77,19.42,29.51c-0.96,1.07-0.51,2.39-0.51,3.58c-0.05,18.72-0.06,37.43-0.07,56.15
		c-0.01,17.16-0.03,34.31,0.01,51.47c0,1.12-0.82,2.92,1.61,2.83C333.4,196.19,339.69,195.95,345.85,194.39z M293.45,244.61
		c3.63-3.46,7.28-6.59,10.5-10.11c2.76-3.01,5.53-5.21,9.9-4.15c0.68,0.17,2.02,0.45,1.99-0.75c-0.05-2.32,1.1-4.85-1.63-6.77
		c-2.33-1.64-2.74-5.1-1.44-7.65c1.4-2.77,3.77-3.71,6.74-3.43c2.92,0.28,4.42,2.1,5.03,4.77c0.62,2.71-0.64,6.17-3.38,6.91
		c-3.43,0.93-3.32,3.1-3.04,5.54c0.31,2.71-0.53,3.64-3.39,3.49c-2.11-0.12-4.52-1.11-6.47,0.99c-4.66,5.04-9.6,9.83-13.85,15.25
		c-0.96,1.23-1.98,2.45-1.83,4.17c0.53,5.73-0.25,11.44-0.38,17.16c-0.35,14.88-0.81,29.77-1.1,44.65
		c-0.05,2.46-0.74,3.44-3.34,3.56c-4.67,0.21-9.35,0.66-13.98,1.31c-31.69,4.46-61.28,15.02-88.94,31.03
		c-1.42,0.82-3.87,1.1-3.74,3.27c0.33,5.17-1.64,10.51,1.06,15.5c0.05,0.09,0.13,0.16,0.2,0.23c4.22,4.17,8.5,8.28,12.62,12.54
		c1.53,1.59,2.61,1.56,4.48,0.41c13.04-8.04,26.6-15.34,41.38-19.35c10.83-2.93,19.1-8.53,25.79-17.1c0.13-0.16,0.29-0.3,0.44-0.44
		c1.08-0.97,1.45-1.97,1.08-3.55c-0.68-2.92,0.37-5.36,3.15-6.78c2.63-1.34,5.1-0.83,7.22,1.05c1.95,1.73,2.32,5.04,0.93,7.51
		c-1.48,2.62-3.86,3.27-6.68,2.85c-0.77-0.11-1.55-0.93-2.33-0.14c-3.21,3.24-6.39,6.5-9.59,9.75c1.25,0.38,2.07,0.27,2.87,0.09
		c7.72-1.79,15.58-2.6,23.43-3.48c3.1-0.34,3.93,0.65,3.82,3.67c-0.56,15.5-0.89,31.01-1.43,46.51c-0.07,2.09,0.56,3.48,2.01,4.89
		c4.03,3.91,8.29,7.68,11.77,12.05c3.91,4.91,8.42,6.86,14.61,6.04c2.36-0.31,3.16-0.71,3.09-3.18c-0.44-15.3-0.71-30.6-1.07-45.9
		c-0.17-7.08-0.43-14.15-0.6-21.23c-0.02-0.96-0.62-2.55,1.6-1.84c8.51,2.71,17.12,5.18,25.24,8.94c2.33,1.08,2.88,0.86,2.87-1.61
		c-0.03-6.46-0.05-12.91,0.09-19.37c0.04-2.03-0.35-3.64-2-4.91c-3.95-3.02-5.71-6.94-4.76-11.93c0.08-0.4-0.07-0.85,0.01-1.24
		c0.45-2.21-0.69-2.88-2.66-3.07c-4.87-0.47-9.73-0.98-14.58-1.62c-2.44-0.32-4.86-0.45-4.89-4.2c-0.24-22.9-0.63-45.81-1.14-68.71
		c-0.07-3.25,1-3.96,4.03-4.07c11.78-0.41,23.38-2.21,34.82-5.06c1.73-0.43,2.44-1.1,2.33-2.91c-0.14-2.28-0.08-4.58-0.01-6.87
		c0.03-0.95-0.35-2.47,1.18-2.4c1.36,0.06,0.7,1.47,0.73,2.27c0.07,2.29,0.09,4.59-0.05,6.87c-0.1,1.7,0.55,1.89,1.98,1.47
		c2.89-0.86,5.78-1.77,8.73-2.34c1.68-0.32,1.91-1.11,1.88-2.54c-0.07-4.06-0.02-8.12-0.02-12.18c0-8.09,0-16.18,0-24.63
		c-7.99,3.03-15.84,5.39-23.96,6.7c-0.46,0.07-0.9,0.47-1.3,0.77c-5.1,3.73-8.74,8.1-7.33,15.08c0.29,1.45,0.19,2.58,2.13,2.55
		c1.89-0.03,2.59,1.02,2.67,2.98c0.39,8.85,0.45,8.83-8.36,8.7c-1.66-0.03-3.58-0.08-3.15-2.3c0.62-3.14-2.51-7.45,2.02-9.23
		c2.1-0.82,2.87-1.45,2.6-3.49c-0.72-5.49,0.32-10.27,5.34-13.5c0.2-0.13,0.26-0.48,0.52-0.99c-1.56,0.15-2.87,0.3-4.19,0.41
		c-5.7,0.51-11.41,1.06-17.14,0.88c-4.43-0.14-5.3-1.03-5.31-5.34c-0.03-14.89-0.05-29.78-0.07-44.67c0-1.3,0-2.61,0-4.08
		c-4.1,2.76-7.18,2.89-9.48,0.56c-2.19-2.23-2.55-6.28-0.76-8.62c2.18-2.84,5.13-2.94,9.92-0.36c0-21.6,0.02-43.24-0.03-64.87
		c-0.01-2.3-0.63-4.52-2.04-6.45c-3.58-4.9-8.37-8.43-14.18-9.58c-7.63-1.51-10,0.02-9.98,7.66c0.09,32.17,0.06,64.35,0.07,96.52
		c0,10.62-0.02,21.24-0.09,31.86c-0.04,5.29-4.67,9.57-9.42,8.56c-7.62-1.62-15.21-3.42-22.43-6.45
		c-5.51-2.31-10.97-4.76-16.87-7.32c0,14.9,0.02,29.46-0.03,44.03c-0.01,1.67,1.07,1.83,2.17,2.04c4.32,0.85,8.53,2.18,12.89,2.91
		c9.46,1.58,18.93,2.9,28.53,2.93C290.11,241.75,292.23,242.32,293.45,244.61z M350.91,351.08c-0.02,0-0.04,0-0.07,0
		c0,3.75,0.07,7.5-0.03,11.24c-0.04,1.54,0.39,2.46,1.86,3.11c21.98,9.79,42.02,22.75,60.91,37.57
		c22.11,17.35,42.14,36.82,59.54,58.9c4.37,5.55,8.21,11.51,12.28,17.3c1.17,1.66,2.4,2.59,4.69,1.93c9.9-2.84,20.08-4.45,30.2-6.28
		c5.23-0.95,7.51-3.15,8.05-8.35c0.36-3.51-0.2-6.8-2.36-9.77c-14.41-19.76-28.86-39.47-45.94-57.09
		c-36.98-38.17-79.75-66.38-132.57-77.49c-3.04-0.64-3.44,0.23-3.13,2.73c0.09,0.72,0.16,1.46,0.08,2.18
		c-0.31,2.86,0.4,5.14,2.86,6.98c2.77,2.08,4.26,4.82,3.72,8.6C350.59,345.42,350.91,348.27,350.91,351.08z M192.84,211.99
		c0-7.07-0.11-13.62,0.06-20.16c0.06-2.31-0.71-3.89-2.3-5.44c-5.66-5.53-11.4-10.99-16.73-16.82c-2.55-2.79-5.22-3.68-8.75-3.26
		c-1.37,0.17-2.43,0.24-2.41,2.01c0.01,1.25-0.55,2.03-2.01,2.28c-8.28,1.41-10.61-0.77-9.58-9.02c0.28-2.24,1.64-3.21,3.62-2.94
		c2.77,0.37,6.16-1.32,8.12,2.14c0.09,0.17,0.1,0.42,0.06,0.61c-0.5,2.94,1.21,3.32,3.46,2.91c3.54-0.65,6.15,0.61,8.32,3.44
		c1.67,2.19,3.7,4.1,5.68,6.26c0.49-0.81,0.67-0.96,0.67-1.12c0.05-9.99,0.04-19.99,0.15-29.98c0.01-1.37-0.73-2.08-1.53-2.87
		c-5.56-5.5-10.61-11.45-15.4-17.61c-6.58-8.47-12.54-17.37-17.81-26.72c-1.16-2.06-2.54-4.07-5.49-3.87
		c-13.71,0.93-27.41,1.83-41.13,2.69c-1.89,0.12-2.33,0.78-1.59,2.54c1.57,3.73,2.9,7.57,4.55,11.27
		c11.87,26.56,29.09,49.38,49.29,70.09C164.32,190.97,177.59,202.23,192.84,211.99z M514.46,98.35c-1.17,0.16-1.97,0.22-2.75,0.39
		c-8.94,1.94-17.87,3.96-26.83,5.79c-2.43,0.5-3.99,1.65-5.4,3.66c-12.8,18.22-27.49,34.78-44.35,49.34
		c-8.73,7.54-17.83,14.6-27.84,20.42c-0.56,0.33-1.98,0.32-1.69,2.07c0.79,4.73,0.35,9.54,0.27,14.31
		c-0.05,2.69,0.45,3.64,3.48,4.24c4.54,0.9,1.55,5.16,2.26,7.84c0.48,1.82-0.28,3.18-2.47,3.48c-8.18,1.13-9.64-0.12-9.39-8.32
		c0.01-0.21,0.03-0.42,0.01-0.62c-0.18-1.7,0.61-2.46,2.29-2.59c0.91-0.07,2.2,0.29,2.19-1.44c-0.03-5.21,0.02-10.41,0.04-15.62
		c0-1.39-0.42-1.56-1.68-0.83c-3.69,2.13-7.44,4.16-11.23,6.11c-0.97,0.5-1.3,0.96-1.3,2.09c0.02,11.97,0,23.95-0.15,35.92
		c-0.03,2.22,0.49,2.51,2.42,1.63c12.81-5.78,25.41-11.99,37.07-19.85c32.06-21.6,56.82-49.77,74.74-83.98
		C508.13,114.75,511.36,106.78,514.46,98.35z M178.78,354.05c-14.09,9.27-27.41,19.01-39.52,30.33c-16,14.96-29.5,31.95-40,51.13
		c-5.69,10.38-8.1,22.22-12.97,33.03c-0.94,2.1,0.69,2.1,1.88,1.79c7.05-1.83,14.28-2.61,21.47-3.59c3.96-0.54,6.57-2.14,8.94-5.57
		c20.17-29.29,43.95-55.06,74.16-74.35c2.03-1.3,1.61-1.93,0.21-3.29c-4.27-4.11-8.39-8.37-12.62-12.53
		c-1.2-1.18-1.63-2.48-1.58-4.17C178.86,362.71,178.78,358.58,178.78,354.05z M289.71,409.2c-0.31,0.46-0.5,0.61-0.5,0.77
		c-0.47,17.79-0.89,35.59-1.41,53.38c-0.05,1.6,0.79,2.46,1.75,3.42c5.5,5.53,10.97,11.11,16.5,16.61c1.41,1.4,2.05,2.79,1.89,4.92
		c-0.44,5.81-0.49,11.64-0.76,17.47c-0.1,2.1-0.53,4.19,2.71,4.16c0.9-0.01,1.63,0.9,2.07,1.76c1.45,2.85,0.9,5.74-0.24,8.45
		c-0.93,2.21-3.28,1.16-5.01,1.53c-0.6,0.13-1.25,0.06-1.87,0.04c-3.1-0.13-4.84-1.81-5.28-5.06c-0.46-3.44,0.72-6.03,3.59-6.68
		c1.74-0.39,1.8-1.28,1.85-2.58c0.14-4.06-0.18-8.21,0.59-12.15c1.32-6.75-1.21-11.39-6.28-15.53c-4.2-3.43-7.9-7.46-11.92-11.32
		c-1.01,17.15-1.48,34.28-1.92,51.42c-0.06,2.41,0.82,4.7,1.99,6.83c4.11,7.46,10.64,9.86,18.84,9.49
		c11.93-0.54,19.67-8.95,18.94-20.78c-0.89-14.33-1.66-28.68-2.36-43.02c-0.68-14.03-1.26-28.07-1.76-42.12
		c-0.07-1.92-0.56-2.52-2.49-2.36c-2.48,0.21-5,0.03-7.49,0.19c-2.03,0.13-3.42-0.5-4.88-2.03
		C300.9,420.31,295.29,414.82,289.71,409.2z M207.94,220.79c0-9.57-0.54-18.67,0.16-27.66c0.59-7.56-1.23-13.36-7.72-17.41
		c-4.88-3.05-6.56-7.4-5.59-12.95c1.05-5.97-0.74-10.66-6.01-14c-2.09-1.32-3.27-3.86-5.76-5.02c0,10.38,0.03,20.47-0.03,30.56
		c-0.01,1.51,0.56,2.52,1.61,3.51c2.58,2.42,5.05,4.96,7.61,7.39c1.8,1.71,2.68,3.61,2.59,6.23c-0.23,6.55-0.15,13.11-0.22,19.67
		c-0.01,1.06-0.13,2.07,0.99,2.73C199.48,216.15,203.3,218.63,207.94,220.79z M221.8,227.58c0-15.97-0.01-31.35,0.01-46.73
		c0-1.22-0.8-1.85-1.54-2.56c-4.22-4.01-8.39-8.07-12.67-12.02c-3.44-3.17-7.02-6.2-10.83-9.55c0,3.58,0.17,6.6-0.05,9.6
		c-0.18,2.52,0.53,4.28,2.57,5.85c2.88,2.21,5.45,4.82,8.27,7.12c1.75,1.42,2.47,2.99,2.44,5.32c-0.16,11.65-0.11,23.3-0.15,34.95
		c0,1.13-0.21,2.2,1.22,2.84C214.46,223.94,217.78,225.63,221.8,227.58z M235.49,232.6c0-15.66,0-30.96,0.01-46.25
		c0-1.04-0.36-1.67-1.29-2.25c-4.1-2.52-8.14-5.15-12.2-7.74c1.86,1.48,1.9,3.4,1.88,5.56c-0.14,14.57-0.18,29.14-0.22,43.72
		c0,1.07-0.42,2.43,0.99,3.02C228.08,230.07,231.48,231.6,235.49,232.6z M241.54,234.52c0.53-0.86,0.31-1.82,0.32-2.74
		c0.1-13.12-0.07-26.25,0.4-39.35c0.15-4.07-1.85-5.1-4.74-6.2c-0.64,1.12-0.35,2.18-0.35,3.18c-0.04,13.33-0.03,26.66-0.07,39.98
		C237.09,233.73,237.04,233.73,241.54,234.52z M381.5,191.09c-1.93,1.12-4.84,0.53-4.87,3.62c-0.11,11.97-0.11,23.94-0.14,35.92
		c0,0.58-0.21,1.23,0.77,1.34c1.97,0.22,4.17-1.73,4.17-3.8c0.02-6.04,0.05-12.08,0.06-18.11
		C381.51,203.84,381.5,197.62,381.5,191.09z M383.43,229.49c3.41-0.3,4.71-1.7,4.65-5.21c-0.18-10.41,0.08-20.82,0.17-31.23
		c0.01-1.59,0-3.17,0-4.65c-4.1,0.46-5.19,2.68-4.87,6.44c0.35,4.13,0.06,8.32,0.06,12.49C383.42,214.7,383.43,222.07,383.43,229.49
		z"/>
	<path class="st0" d="M91.12,438.64c0,0-0.27,0.01-0.27,0.01s-0.09,0.29-0.1,0.28C90.87,438.83,91,438.73,91.12,438.64z"/>
	<path class="st1" d="M327.19,311.68c-0.69-0.26-0.48-0.67-0.17-1.09C327.43,310.9,327.28,311.3,327.19,311.68z"/>
	<path class="st1" d="M328.37,312.11c-0.37,0.1-0.75,0.21-1.12,0.31c0.06-0.19,0.1-0.39,0.13-0.58
		C327.76,311.75,328.15,311.61,328.37,312.11z"/>
	<path class="st1" d="M326.85,364.11c-0.03-0.14-0.05-0.27-0.08-0.41c0.08-0.01,0.16-0.01,0.24-0.02c0.02,0.13,0.04,0.27,0.06,0.4
		C327,364.09,326.93,364.1,326.85,364.11z"/>
	<path class="st0" d="M347.11,194.25c0,0,0.1-0.09,0.1-0.09C347.21,194.16,347.11,194.25,347.11,194.25z"/>
	<path class="st1" d="M293.45,244.61c-1.22-2.29-3.34-2.86-5.94-2.86c-9.6-0.02-19.07-1.35-28.53-2.93
		c-4.37-0.73-8.57-2.07-12.89-2.91c-1.1-0.22-2.18-0.38-2.17-2.04c0.05-14.56,0.03-29.13,0.03-44.03c5.9,2.57,11.36,5.01,16.87,7.32
		c7.22,3.03,14.81,4.83,22.43,6.45c4.74,1.01,9.38-3.27,9.42-8.56c0.08-10.62,0.09-21.24,0.09-31.86c0-32.17,0.02-64.35-0.07-96.52
		c-0.02-7.64,2.35-9.18,9.98-7.66c5.82,1.15,10.6,4.68,14.18,9.58c1.41,1.93,2.04,4.15,2.04,6.45c0.05,21.63,0.03,43.26,0.03,64.87
		c-4.8-2.58-7.74-2.48-9.92,0.36c-1.79,2.33-1.44,6.39,0.76,8.62c2.3,2.34,5.38,2.21,9.48-0.56c0,1.47,0,2.78,0,4.08
		c0.02,14.89,0.04,29.78,0.07,44.67c0.01,4.31,0.88,5.2,5.31,5.34c5.74,0.18,11.44-0.37,17.14-0.88c1.32-0.12,2.63-0.26,4.19-0.41
		c-0.26,0.51-0.32,0.86-0.52,0.99c-5.02,3.22-6.06,8.01-5.34,13.5c0.27,2.04-0.5,2.66-2.6,3.49c-4.53,1.78-1.41,6.09-2.02,9.23
		c-0.43,2.21,1.48,2.27,3.15,2.3c8.82,0.14,8.76,0.15,8.36-8.7c-0.09-1.96-0.79-3.01-2.67-2.98c-1.94,0.03-1.83-1.1-2.13-2.55
		c-1.41-6.97,2.23-11.35,7.33-15.08c0.41-0.3,0.84-0.69,1.3-0.77c8.13-1.31,15.97-3.67,23.96-6.7c0,8.46,0,16.54,0,24.63
		c0,4.06-0.04,8.12,0.02,12.18c0.02,1.43-0.2,2.21-1.88,2.54c-2.95,0.57-5.84,1.49-8.73,2.34c-1.43,0.42-2.09,0.24-1.98-1.47
		c0.14-2.28,0.12-4.58,0.05-6.87c-0.03-0.8,0.63-2.2-0.73-2.27c-1.53-0.07-1.15,1.45-1.18,2.4c-0.07,2.29-0.13,4.59,0.01,6.87
		c0.11,1.81-0.6,2.48-2.33,2.91c-11.44,2.85-23.05,4.65-34.82,5.06c-3.03,0.11-4.11,0.82-4.03,4.07c0.52,22.9,0.9,45.8,1.14,68.71
		c0.04,3.75,2.46,3.88,4.89,4.2c4.85,0.64,9.71,1.15,14.58,1.62c1.97,0.19,3.12,0.87,2.66,3.07c-0.08,0.4,0.07,0.84-0.01,1.24
		c-0.95,4.99,0.81,8.91,4.76,11.93c1.65,1.26,2.04,2.88,2,4.91c-0.14,6.45-0.13,12.91-0.09,19.37c0.01,2.48-0.54,2.69-2.87,1.61
		c-8.12-3.76-16.73-6.23-25.24-8.94c-2.23-0.71-1.63,0.88-1.6,1.84c0.17,7.08,0.43,14.15,0.6,21.23c0.36,15.3,0.64,30.6,1.07,45.9
		c0.07,2.47-0.73,2.87-3.09,3.18c-6.19,0.82-10.7-1.13-14.61-6.04c-3.48-4.37-7.74-8.13-11.77-12.05c-1.45-1.41-2.09-2.8-2.01-4.89
		c0.54-15.5,0.88-31.01,1.43-46.51c0.11-3.02-0.72-4.01-3.82-3.67c-7.86,0.87-15.71,1.69-23.43,3.48c-0.8,0.19-1.62,0.29-2.87-0.09
		c3.19-3.25,6.38-6.51,9.59-9.75c0.78-0.79,1.56,0.03,2.33,0.14c2.83,0.42,5.21-0.23,6.68-2.85c1.39-2.47,1.02-5.78-0.93-7.51
		c-2.13-1.89-4.6-2.39-7.22-1.05c-2.79,1.42-3.84,3.85-3.15,6.78c0.37,1.58,0,2.59-1.08,3.55c-0.15,0.14-0.31,0.28-0.44,0.44
		c-6.69,8.57-14.96,14.17-25.79,17.1c-14.78,4-28.33,11.31-41.38,19.35c-1.87,1.15-2.94,1.18-4.48-0.41
		c-4.12-4.26-8.4-8.37-12.62-12.54c-0.07-0.07-0.16-0.15-0.2-0.23c-2.7-5-0.73-10.34-1.06-15.5c-0.14-2.17,2.31-2.44,3.74-3.27
		c27.66-16.01,57.25-26.57,88.94-31.03c4.63-0.65,9.31-1.11,13.98-1.31c2.6-0.12,3.29-1.1,3.34-3.56
		c0.29-14.88,0.75-29.77,1.1-44.65c0.13-5.72,0.91-11.43,0.38-17.16c-0.16-1.72,0.86-2.95,1.83-4.17
		c4.24-5.42,9.18-10.21,13.85-15.25c1.95-2.11,4.35-1.11,6.47-0.99c2.86,0.16,3.7-0.78,3.39-3.49c-0.28-2.44-0.39-4.62,3.04-5.54
		c2.74-0.74,4-4.2,3.38-6.91c-0.61-2.67-2.12-4.49-5.03-4.77c-2.97-0.29-5.34,0.66-6.74,3.43c-1.29,2.56-0.88,6.01,1.44,7.65
		c2.72,1.92,1.57,4.45,1.63,6.77c0.03,1.2-1.31,0.92-1.99,0.75c-4.36-1.06-7.14,1.14-9.9,4.15
		C300.73,238.02,297.08,241.15,293.45,244.61z M296.99,291.86c5.01,1.48,7.42,0.98,9.16-1.73c1.58-2.45,1.35-5.62-0.56-7.83
		c-2-2.3-4.55-2.52-8.97-0.67c0-3.26,0.33-6.48-0.07-9.61c-0.73-5.6,1.18-9.85,5.58-13.16c0.08-0.06,0.15-0.15,0.21-0.23
		c0.78-0.98,1.57-1.2,2.94-0.87c4.05,0.99,7.66-1.64,8.1-5.58c0.42-3.76-2.52-7.09-6.22-7.05c-3.85,0.04-7.1,3.37-6.06,7.35
		c0.91,3.45-0.88,4.92-2.73,6.79c-1.02,1.04-2.06,2.06-3.12,3.06c-0.8,0.75-1.26,1.56-1.12,2.74c1.18,9.84,0.06,19.72,0.5,29.59
		c0.48,10.91,0.08,21.87,0.02,32.8c-0.01,1.32,0.26,2.34,1.34,3.27c2.6,2.24,5.02,4.68,7.61,6.93c1.44,1.25,1.98,2.6,1.97,4.55
		c-0.12,19.67-0.12,39.34-0.19,59.01c-0.01,1.71,0.72,3.96-2.48,3.71c-0.94-0.08-0.87,1.05-0.9,1.71c-0.09,2.49-0.13,4.99-0.14,7.49
		c-0.01,1.53,0.75,2.08,2.32,2.19c8.92,0.59,9.75-0.26,9.07-9.19c-0.13-1.75-0.75-2.54-2.46-2.21c-2.91,0.56-3.39-0.82-3.37-3.43
		c0.16-20.09,0.2-40.17,0.24-60.26c0-0.95,0.26-1.84-0.67-2.82c-2.79-2.92-5.51-5.9-8.66-8.45c-0.72-0.59-1.55-1.13-1.55-2.21
		c-0.01-3.76,0-7.51,0-11.95c6.28,6.68,12.58,11.98,17.97,18.17c0.32,0.36,0.99,0.84,1.29,0.72c2.84-1.1,3.93,1.29,5.61,2.62
		c2.29,1.82,4.86,2.37,7.55,0.85c2.45-1.39,3.43-3.63,2.98-6.34c-0.49-2.96-2.34-4.8-5.33-5.38c-3.43-0.66-5.5,1.25-7.09,3.91
		c-0.93,1.56-2.04,3.05-3.8,1.31c-4.35-4.28-8.52-8.74-12.9-13.27c5.08-0.76,7.16-2.51,7.32-5.94c0.15-3.16-1.66-5.61-4.76-6.46
		c-3.57-0.98-5.81,0.42-8.33,5.37C296.36,304.76,297.16,298.36,296.99,291.86z M304.92,136.42c-0.03,0-0.05,0-0.08,0
		c0,17.69-0.02,35.39,0.04,53.08c0.01,1.79-0.44,3.1-1.72,4.39c-5.35,5.38-10.63,10.84-15.86,16.34c-1.27,1.33-2.29,1.78-4.25,1.11
		c-2.74-0.94-5.38-0.16-7.07,2.5c-1.64,2.59-1.47,5.2,0.44,7.53c1.87,2.28,4.42,2.69,7.08,1.61c2.89-1.17,3.91-3.59,3.65-6.56
		c-0.09-1.04-0.24-1.8,0.71-2.72c5.97-5.8,11.77-11.77,17.73-17.57c1.32-1.28,1.8-2.57,1.79-4.36c-0.07-16.34-0.07-32.68-0.05-49.02
		c0.03-19.77,0.09-39.55,0.15-59.32c0.01-1.78-0.26-3.67,2.57-3.56c1.18,0.05,1.73-0.98,1.72-2.18c-0.01-2.29,0-4.58-0.02-6.87
		c-0.01-0.73-0.03-1.59-0.88-1.83c-3.13-0.89-6.48-1.57-9.45-0.23c-2.26,1.02-0.81,3.76-1.08,5.72c-0.17,1.22-0.02,2.49,0.03,3.74
		c0.04,1.09,0.57,1.87,1.73,1.74c3.08-0.35,2.87,1.61,2.87,3.7C304.9,101.24,304.92,118.83,304.92,136.42z M225.91,355.76
		c3.84,0.06,6.58-2.51,6.67-6.25c0.09-3.49-2.7-6.34-6.25-6.38c-3.75-0.04-6.59,2.67-6.64,6.34
		C219.65,353.15,222.18,355.71,225.91,355.76z M207.14,362.47c3.7,0.03,6.42-2.59,6.39-6.17c-0.03-3.69-2.62-6.39-6.19-6.47
		c-3.62-0.08-6.3,2.55-6.37,6.22C200.91,359.69,203.56,362.44,207.14,362.47z M251.74,342.98c0.01-3.81-2.42-6.29-6.2-6.32
		c-3.72-0.02-6.27,2.48-6.35,6.23c-0.08,3.56,2.65,6.35,6.24,6.38C249.03,349.3,251.73,346.62,251.74,342.98z M253.73,223.82
		c3.41-0.06,6.02-2.78,5.99-6.23c-0.04-3.69-2.94-6.54-6.55-6.44c-3.51,0.1-6.03,2.91-5.93,6.61
		C247.33,221.33,250.06,223.88,253.73,223.82z M363.11,221.9c3.66-0.06,6.12-2.66,6.05-6.41c-0.06-3.58-2.59-6.12-6.07-6.1
		c-3.48,0.02-6.15,3.03-6.07,6.88C357.08,219.61,359.62,221.96,363.11,221.9z"/>
	<path class="st1" d="M350.91,351.08c0-2.81-0.32-5.67,0.08-8.42c0.55-3.78-0.94-6.52-3.72-8.6c-2.46-1.85-3.16-4.13-2.86-6.98
		c0.08-0.72,0.01-1.46-0.08-2.18c-0.32-2.5,0.08-3.37,3.13-2.73c52.82,11.11,95.59,39.32,132.57,77.49
		c17.07,17.62,31.53,37.33,45.94,57.09c2.16,2.96,2.72,6.26,2.36,9.77c-0.53,5.2-2.82,7.4-8.05,8.35
		c-10.12,1.83-20.29,3.44-30.2,6.28c-2.29,0.66-3.52-0.27-4.69-1.93c-4.06-5.79-7.91-11.75-12.28-17.3
		c-17.4-22.09-37.43-41.56-59.54-58.9c-18.89-14.82-38.92-27.78-60.91-37.57c-1.48-0.66-1.9-1.57-1.86-3.11
		c0.1-3.74,0.03-7.49,0.03-11.24C350.87,351.08,350.89,351.08,350.91,351.08z M478.35,447.73c0.04,3.51,2.89,6.21,6.46,6.16
		c3.47-0.05,6.25-2.96,6.19-6.47c-0.06-3.53-2.89-6.35-6.35-6.34C480.97,441.1,478.31,443.91,478.35,447.73z M377.36,358.37
		c0.04-3.67-2.6-6.4-6.21-6.43c-3.43-0.02-6.33,2.94-6.29,6.43c0.04,3.52,2.56,6.04,6.13,6.15
		C374.69,364.63,377.33,362.09,377.36,358.37z M455.72,424.57c3.35,0.06,6.14-2.71,6.19-6.12c0.05-3.43-2.85-6.39-6.3-6.45
		c-3.37-0.05-6.04,2.63-6.13,6.16C449.38,421.69,452.13,424.51,455.72,424.57z M412.52,380c3.61,0.06,6.38-2.56,6.48-6.13
		c0.1-3.49-2.64-6.39-6.15-6.51c-3.55-0.12-6.35,2.56-6.44,6.16C406.33,377.1,409,379.93,412.52,380z M427.98,393.21
		c0.07-3.55-2.58-6.3-6.17-6.39c-3.48-0.09-6.22,2.6-6.36,6.23c-0.13,3.49,2.64,6.35,6.16,6.36
		C425.19,399.42,427.91,396.78,427.98,393.21z M473.64,433.15c-0.04-3.48-2.65-6.11-6.09-6.13c-3.45-0.03-6.46,2.88-6.43,6.22
		c0.03,3.34,3.02,6.28,6.43,6.31C471.06,439.59,473.68,436.83,473.64,433.15z M387.26,367.48c3.4-0.02,6.14-2.71,6.16-6.07
		c0.02-3.6-2.64-6.38-6.16-6.44c-3.49-0.06-6.28,2.73-6.28,6.28C380.98,364.85,383.66,367.5,387.26,367.48z"/>
	<path class="st1" d="M192.84,211.99c-15.25-9.75-28.52-21.02-40.74-33.56c-20.2-20.71-37.41-43.53-49.29-70.09
		c-1.65-3.7-2.98-7.54-4.55-11.27c-0.74-1.76-0.3-2.42,1.59-2.54c13.71-0.86,27.42-1.76,41.13-2.69c2.95-0.2,4.33,1.81,5.49,3.87
		c5.27,9.35,11.23,18.25,17.81,26.72c4.79,6.17,9.84,12.11,15.4,17.61c0.81,0.8,1.55,1.5,1.53,2.87c-0.1,9.99-0.1,19.99-0.15,29.98
		c0,0.16-0.18,0.31-0.67,1.12c-1.98-2.16-4.01-4.08-5.68-6.26c-2.17-2.83-4.77-4.09-8.32-3.44c-2.25,0.41-3.96,0.04-3.46-2.91
		c0.03-0.2,0.03-0.45-0.06-0.61c-1.96-3.47-5.34-1.77-8.12-2.14c-1.98-0.26-3.34,0.7-3.62,2.94c-1.03,8.25,1.3,10.43,9.58,9.02
		c1.46-0.25,2.02-1.04,2.01-2.28c-0.02-1.77,1.04-1.85,2.41-2.01c3.53-0.43,6.2,0.47,8.75,3.26c5.33,5.83,11.07,11.29,16.73,16.82
		c1.59,1.55,2.36,3.13,2.3,5.44C192.73,198.37,192.84,204.92,192.84,211.99z"/>
	<path class="st1" d="M514.46,98.35c-3.09,8.43-6.32,16.4-10.32,24.02c-17.92,34.21-42.69,62.38-74.74,83.98
		c-11.66,7.86-24.26,14.08-37.07,19.85c-1.93,0.87-2.45,0.58-2.42-1.63c0.14-11.97,0.16-23.95,0.15-35.92c0-1.13,0.33-1.59,1.3-2.09
		c3.79-1.95,7.54-3.97,11.23-6.11c1.26-0.73,1.68-0.55,1.68,0.83c-0.01,5.21-0.06,10.41-0.04,15.62c0.01,1.72-1.28,1.37-2.19,1.44
		c-1.68,0.13-2.47,0.89-2.29,2.59c0.02,0.21,0,0.42-0.01,0.62c-0.24,8.2,1.21,9.45,9.39,8.32c2.2-0.3,2.95-1.66,2.47-3.48
		c-0.71-2.68,2.28-6.95-2.26-7.84c-3.03-0.6-3.52-1.54-3.48-4.24c0.08-4.77,0.52-9.58-0.27-14.31c-0.29-1.75,1.13-1.75,1.69-2.07
		c10.01-5.82,19.11-12.88,27.84-20.42c16.87-14.56,31.56-31.11,44.35-49.34c1.41-2.01,2.97-3.16,5.4-3.66
		c8.96-1.83,17.89-3.86,26.83-5.79C512.49,98.56,513.29,98.51,514.46,98.35z M494.3,111.72c-4.81,0.01-7.55,3.72-6.34,8.77
		c0.29,1.19,0.43,1.92-0.59,2.96c-20.02,20.42-39.98,40.92-60.32,61.02c-1.88,1.86-3.3,4.86-6.88,3.04c-0.36-0.18-1,0.14-1.49,0.3
		c-3.45,1.15-5.41,5.05-4.32,8.57c1.1,3.56,4.68,5.24,8.58,4.04c3.44-1.07,4.99-4.17,3.94-7.98c-0.34-1.24-0.94-2.16,0.44-3.5
		c21.06-20.42,41.39-41.55,61.81-62.61c1.14-1.18,2.04-1.83,3.94-1.36c4.13,1.02,7.62-1.66,8-5.69
		C501.52,114.42,499.1,111.72,494.3,111.72z"/>
	<path class="st1" d="M178.78,354.05c0,4.53,0.08,8.65-0.04,12.77c-0.05,1.69,0.38,2.99,1.58,4.17c4.23,4.16,8.35,8.42,12.62,12.53
		c1.41,1.36,1.82,1.99-0.21,3.29c-30.21,19.3-53.99,45.06-74.16,74.35c-2.36,3.43-4.98,5.03-8.94,5.57
		c-7.18,0.98-14.41,1.76-21.47,3.59c-1.19,0.31-2.82,0.31-1.88-1.79c4.86-10.81,7.28-22.65,12.97-33.03
		c10.5-19.18,24-36.17,40-51.13C151.37,373.06,164.69,363.32,178.78,354.05z M118.68,432.42c0.05-3.48-2.7-6.26-6.26-6.33
		c-3.58-0.07-6.34,2.63-6.33,6.18c0.02,3.62,2.71,6.36,6.22,6.33C115.98,438.57,118.64,436,118.68,432.42z M175.63,383.28
		c0-3.68-2.66-6.46-6.19-6.45c-3.5,0-6.07,2.56-6.14,6.12c-0.08,3.85,2.64,6.67,6.34,6.59
		C173.16,389.47,175.63,386.88,175.63,383.28z M105.42,441.05c-3.57,0.01-6.07,2.63-6.13,6.44c-0.05,3.44,2.57,6.1,6.05,6.15
		c3.66,0.05,6.42-2.54,6.46-6.06C111.84,443.79,109.15,441.04,105.42,441.05z M132.13,412.89c-3.53,0.04-6.14,2.86-6.03,6.51
		c0.1,3.43,2.75,5.95,6.27,5.98c3.81,0.03,6.43-2.67,6.32-6.52C138.59,415.28,135.91,412.84,132.13,412.89z"/>
	<path class="st1" d="M289.71,409.2c5.58,5.62,11.19,11.12,16.59,16.81c1.45,1.53,2.85,2.16,4.88,2.03
		c2.49-0.16,5.01,0.02,7.49-0.19c1.92-0.16,2.42,0.44,2.49,2.36c0.5,14.04,1.08,28.08,1.76,42.12c0.7,14.35,1.47,28.69,2.36,43.02
		c0.73,11.83-7.01,20.24-18.94,20.78c-8.2,0.37-14.73-2.03-18.84-9.49c-1.17-2.12-2.05-4.42-1.99-6.83
		c0.43-17.14,0.91-34.27,1.92-51.42c4.02,3.86,7.72,7.89,11.92,11.32c5.06,4.14,7.6,8.78,6.28,15.53
		c-0.77,3.94-0.45,8.09-0.59,12.15c-0.04,1.3-0.1,2.18-1.85,2.58c-2.86,0.65-4.05,3.24-3.59,6.68c0.44,3.25,2.18,4.92,5.28,5.06
		c0.62,0.03,1.27,0.09,1.87-0.04c1.72-0.36,4.07,0.69,5.01-1.53c1.14-2.71,1.69-5.6,0.24-8.45c-0.44-0.86-1.17-1.77-2.07-1.76
		c-3.24,0.03-2.81-2.06-2.71-4.16c0.27-5.82,0.32-11.66,0.76-17.47c0.16-2.13-0.48-3.52-1.89-4.92c-5.53-5.5-10.99-11.08-16.5-16.61
		c-0.96-0.96-1.8-1.82-1.75-3.42c0.51-17.79,0.94-35.59,1.41-53.38C289.22,409.81,289.41,409.66,289.71,409.2z M319.84,441.62
		c0-3.91-2.36-6.27-6.2-6.22c-3.42,0.05-5.9,2.71-5.91,6.32c0,3.62,2.47,6.11,6.08,6.11C317.24,447.83,319.84,445.15,319.84,441.62z
		"/>
	<path class="st1" d="M207.94,220.79c-4.64-2.16-8.46-4.64-12.37-6.96c-1.12-0.66-1-1.67-0.99-2.73c0.08-6.56-0.01-13.12,0.22-19.67
		c0.09-2.62-0.79-4.52-2.59-6.23c-2.57-2.43-5.04-4.97-7.61-7.39c-1.05-0.99-1.62-2-1.61-3.51c0.06-10.09,0.03-20.18,0.03-30.56
		c2.49,1.16,3.67,3.69,5.76,5.02c5.28,3.34,7.06,8.03,6.01,14c-0.97,5.54,0.71,9.9,5.59,12.95c6.49,4.05,8.31,9.85,7.72,17.41
		C207.4,202.13,207.94,211.22,207.94,220.79z"/>
	<path class="st1" d="M221.8,227.58c-4.02-1.96-7.33-3.65-10.72-5.17c-1.43-0.64-1.22-1.71-1.22-2.84
		c0.03-11.65-0.01-23.3,0.15-34.95c0.03-2.33-0.7-3.9-2.44-5.32c-2.82-2.3-5.39-4.91-8.27-7.12c-2.04-1.57-2.75-3.33-2.57-5.85
		c0.22-3,0.05-6.02,0.05-9.6c3.81,3.35,7.38,6.38,10.83,9.55c4.28,3.94,8.46,8,12.67,12.02c0.74,0.71,1.54,1.34,1.54,2.56
		C221.79,196.23,221.8,211.61,221.8,227.58z"/>
	<path class="st1" d="M235.49,232.6c-4.01-1-7.41-2.53-10.83-3.95c-1.41-0.59-0.99-1.94-0.99-3.02c0.04-14.57,0.07-29.14,0.22-43.72
		c0.02-2.15-0.02-4.08-1.88-5.56c4.06,2.59,8.1,5.22,12.2,7.74c0.93,0.57,1.29,1.21,1.29,2.25
		C235.48,201.64,235.49,216.93,235.49,232.6z"/>
	<path class="st1" d="M241.54,234.52c-4.5-0.79-4.45-0.79-4.44-5.12c0.04-13.33,0.03-26.66,0.07-39.98c0-1-0.29-2.06,0.35-3.18
		c2.89,1.09,4.88,2.13,4.74,6.2c-0.47,13.11-0.31,26.23-0.4,39.35C241.85,232.7,242.08,233.66,241.54,234.52z"/>
	<path class="st1" d="M381.5,191.09c0,6.53,0.01,12.75,0,18.96c-0.01,6.04-0.04,12.08-0.06,18.11c-0.01,2.07-2.21,4.03-4.17,3.8
		c-0.98-0.11-0.77-0.76-0.77-1.34c0.03-11.97,0.03-23.94,0.14-35.92C376.66,191.62,379.57,192.21,381.5,191.09z"/>
	<path class="st1" d="M383.43,229.49c0-7.42,0-14.8,0-22.17c0-4.16,0.3-8.35-0.06-12.49c-0.32-3.76,0.78-5.98,4.87-6.44
		c0,1.48,0.01,3.07,0,4.65c-0.08,10.41-0.34,20.82-0.17,31.23C388.14,227.79,386.83,229.19,383.43,229.49z"/>
	<path class="st2" d="M296.99,291.86c0.17,6.5-0.63,12.89,0.31,19.5c2.52-4.95,4.77-6.35,8.33-5.37c3.1,0.85,4.9,3.31,4.76,6.46
		c-0.16,3.43-2.24,5.18-7.32,5.94c4.38,4.53,8.55,8.99,12.9,13.27c1.77,1.74,2.87,0.25,3.8-1.31c1.59-2.66,3.66-4.57,7.09-3.91
		c2.99,0.57,4.84,2.41,5.33,5.38c0.45,2.7-0.53,4.95-2.98,6.34c-2.68,1.52-5.25,0.97-7.55-0.85c-1.68-1.33-2.77-3.72-5.61-2.62
		c-0.3,0.12-0.97-0.36-1.29-0.72c-5.39-6.2-11.69-11.49-17.97-18.17c0,4.44-0.01,8.19,0,11.95c0,1.08,0.83,1.62,1.55,2.21
		c3.15,2.55,5.87,5.53,8.66,8.45c0.94,0.98,0.68,1.88,0.67,2.82c-0.04,20.09-0.08,40.17-0.24,60.26c-0.02,2.6,0.45,3.98,3.37,3.43
		c1.71-0.33,2.32,0.46,2.46,2.21c0.69,8.92-0.14,9.77-9.07,9.19c-1.57-0.1-2.33-0.66-2.32-2.19c0.01-2.5,0.05-4.99,0.14-7.49
		c0.03-0.67-0.04-1.79,0.9-1.71c3.2,0.26,2.47-2,2.48-3.71c0.06-19.67,0.07-39.34,0.19-59.01c0.01-1.94-0.53-3.3-1.97-4.55
		c-2.59-2.25-5.01-4.69-7.61-6.93c-1.08-0.93-1.34-1.95-1.34-3.27c0.05-10.94,0.46-21.89-0.02-32.8c-0.44-9.87,0.68-19.75-0.5-29.59
		c-0.14-1.18,0.31-1.98,1.12-2.74c1.06-0.99,2.1-2.02,3.12-3.06c1.85-1.87,3.63-3.34,2.73-6.79c-1.05-3.98,2.21-7.31,6.06-7.35
		c3.7-0.04,6.64,3.29,6.22,7.05c-0.44,3.95-4.05,6.57-8.1,5.58c-1.37-0.33-2.16-0.11-2.94,0.87c-0.06,0.08-0.13,0.17-0.21,0.23
		c-4.41,3.31-6.31,7.56-5.58,13.16c0.41,3.13,0.07,6.35,0.07,9.61c4.42-1.85,6.97-1.63,8.97,0.67c1.92,2.2,2.15,5.37,0.56,7.83
		C304.41,292.85,302,293.35,296.99,291.86z"/>
	<path class="st2" d="M304.92,136.42c0-17.59-0.02-35.18,0.02-52.77c0-2.09,0.21-4.05-2.87-3.7c-1.15,0.13-1.69-0.65-1.73-1.74
		c-0.05-1.25-0.2-2.52-0.03-3.74c0.27-1.96-1.17-4.7,1.08-5.72c2.97-1.34,6.32-0.66,9.45,0.23c0.84,0.24,0.87,1.09,0.88,1.83
		c0.02,2.29,0.01,4.58,0.02,6.87c0.01,1.2-0.54,2.23-1.72,2.18c-2.83-0.11-2.56,1.78-2.57,3.56c-0.06,19.77-0.12,39.55-0.15,59.32
		c-0.02,16.34-0.01,32.68,0.05,49.02c0.01,1.8-0.47,3.08-1.79,4.36c-5.96,5.81-11.76,11.78-17.73,17.57
		c-0.95,0.93-0.8,1.68-0.71,2.72c0.26,2.97-0.76,5.39-3.65,6.56c-2.65,1.08-5.2,0.67-7.08-1.61c-1.91-2.32-2.08-4.93-0.44-7.53
		c1.69-2.67,4.33-3.44,7.07-2.5c1.96,0.67,2.98,0.22,4.25-1.11c5.23-5.5,10.51-10.96,15.86-16.34c1.29-1.29,1.73-2.6,1.72-4.39
		c-0.06-17.69-0.04-35.39-0.04-53.08C304.86,136.42,304.89,136.42,304.92,136.42z"/>
	<path class="st2" d="M225.91,355.76c-3.72-0.05-6.26-2.62-6.21-6.28c0.04-3.67,2.89-6.39,6.64-6.34c3.55,0.04,6.33,2.88,6.25,6.38
		C232.49,353.26,229.75,355.82,225.91,355.76z"/>
	<path class="st2" d="M207.14,362.47c-3.58-0.03-6.23-2.78-6.17-6.41c0.06-3.68,2.75-6.3,6.37-6.22c3.57,0.07,6.16,2.78,6.19,6.47
		C213.56,359.89,210.84,362.5,207.14,362.47z"/>
	<path class="st2" d="M251.74,342.98c-0.01,3.63-2.71,6.32-6.31,6.29c-3.59-0.03-6.32-2.82-6.24-6.38c0.08-3.75,2.64-6.26,6.35-6.23
		C249.32,336.69,251.75,339.17,251.74,342.98z"/>
	<path class="st2" d="M253.73,223.82c-3.66,0.07-6.4-2.49-6.49-6.06c-0.1-3.7,2.43-6.51,5.93-6.61c3.61-0.1,6.51,2.75,6.55,6.44
		C259.75,221.04,257.14,223.76,253.73,223.82z"/>
	<path class="st2" d="M363.11,221.9c-3.49,0.05-6.03-2.3-6.1-5.63c-0.07-3.85,2.59-6.86,6.07-6.88c3.49-0.02,6.01,2.52,6.07,6.1
		C369.23,219.24,366.77,221.85,363.11,221.9z"/>
	<path class="st2" d="M478.35,447.73c-0.05-3.83,2.62-6.64,6.3-6.65c3.46-0.01,6.29,2.82,6.35,6.34c0.06,3.51-2.72,6.41-6.19,6.47
		C481.24,453.95,478.4,451.24,478.35,447.73z"/>
	<path class="st2" d="M377.36,358.37c-0.04,3.72-2.68,6.26-6.37,6.15c-3.58-0.11-6.09-2.63-6.13-6.15
		c-0.04-3.49,2.86-6.46,6.29-6.43C374.76,351.97,377.4,354.7,377.36,358.37z"/>
	<path class="st2" d="M455.72,424.57c-3.58-0.06-6.34-2.88-6.24-6.4c0.09-3.53,2.76-6.22,6.13-6.16c3.45,0.05,6.35,3.02,6.3,6.45
		C461.86,421.87,459.07,424.63,455.72,424.57z"/>
	<path class="st2" d="M412.52,380c-3.52-0.06-6.19-2.9-6.11-6.48c0.09-3.6,2.88-6.27,6.44-6.16c3.51,0.11,6.25,3.02,6.15,6.51
		C418.9,377.44,416.13,380.06,412.52,380z"/>
	<path class="st2" d="M427.98,393.21c-0.07,3.57-2.79,6.21-6.37,6.2c-3.52-0.01-6.29-2.87-6.16-6.36c0.14-3.63,2.88-6.32,6.36-6.23
		C425.4,386.91,428.05,389.66,427.98,393.21z"/>
	<path class="st2" d="M473.64,433.15c0.05,3.68-2.58,6.44-6.09,6.41c-3.41-0.03-6.4-2.98-6.43-6.31c-0.03-3.34,2.98-6.25,6.43-6.22
		C470.99,427.05,473.6,429.67,473.64,433.15z"/>
	<path class="st2" d="M387.26,367.48c-3.6,0.02-6.28-2.63-6.28-6.23c-0.01-3.55,2.79-6.34,6.28-6.28c3.52,0.06,6.18,2.85,6.16,6.44
		C393.39,364.77,390.66,367.46,387.26,367.48z"/>
	<path class="st2" d="M494.3,111.72c4.8-0.01,7.22,2.69,6.77,7.55c-0.37,4.03-3.87,6.72-8,5.69c-1.9-0.47-2.8,0.18-3.94,1.36
		c-20.42,21.05-40.75,42.19-61.81,62.61c-1.38,1.34-0.79,2.26-0.44,3.5c1.05,3.81-0.5,6.91-3.94,7.98c-3.9,1.21-7.48-0.48-8.58-4.04
		c-1.08-3.52,0.88-7.42,4.32-8.57c0.49-0.16,1.14-0.48,1.49-0.3c3.58,1.83,5-1.18,6.88-3.04c20.35-20.1,40.3-40.6,60.32-61.02
		c1.02-1.04,0.88-1.76,0.59-2.96C486.75,115.44,489.49,111.73,494.3,111.72z"/>
	<path class="st2" d="M118.68,432.42c-0.05,3.58-2.7,6.15-6.37,6.18c-3.51,0.03-6.2-2.71-6.22-6.33c-0.02-3.55,2.75-6.25,6.33-6.18
		C115.98,426.16,118.73,428.93,118.68,432.42z"/>
	<path class="st2" d="M175.63,383.28c0,3.6-2.47,6.18-5.99,6.26c-3.7,0.08-6.42-2.74-6.34-6.59c0.07-3.57,2.64-6.12,6.14-6.12
		C172.97,376.83,175.63,379.6,175.63,383.28z"/>
	<path class="st2" d="M105.42,441.05c3.73-0.01,6.42,2.74,6.38,6.53c-0.04,3.52-2.8,6.11-6.46,6.06c-3.48-0.05-6.1-2.71-6.05-6.15
		C99.36,443.68,101.85,441.06,105.42,441.05z"/>
	<path class="st2" d="M132.13,412.89c3.77-0.05,6.46,2.4,6.56,5.97c0.11,3.84-2.51,6.54-6.32,6.52c-3.52-0.03-6.17-2.55-6.27-5.98
		C125.99,415.75,128.6,412.93,132.13,412.89z"/>
	<path class="st2" d="M319.84,441.62c0,3.53-2.6,6.21-6.03,6.21c-3.6,0-6.08-2.49-6.08-6.11c0-3.61,2.49-6.27,5.91-6.32
		C317.48,435.35,319.84,437.71,319.84,441.62z"/>
</g>
<g>
	<path class="st3" d="M-274.83,181.77c0.45-0.08,0.91-0.15,1.36-0.23c0,0-0.1,0.09-0.1,0.09c0.12-0.21,0.25-0.42,0.37-0.63
		c0.72,0.47,1.45,0.57,2.31,0.33c3.61-1.01,7.37-1.21,11.02-2.27c15.03-4.39,29.45-10.09,42.68-18.54
		c4.95-3.16,10.28-5.82,14.41-10.16l-0.09,0.08c4.56-2.43,8.4-5.76,11.94-9.47c0,0-0.08,0.09-0.08,0.09
		c6.49-4.5,11.75-10.34,17.21-15.93c3.22-3.29,6.62-6.45,9.1-10.41c0,0-0.08,0.1-0.08,0.1c1.55-0.6,2.24-2.09,3.18-3.26
		c6.33-7.89,12.78-15.7,18.16-24.31c0,0-0.07,0.09-0.07,0.09c2.53-1.6,5.53-1.13,8.27-1.87c5.05-1.37,10.19-2.43,15.3-3.62
		c0.5-0.28,1-0.56,1.49-0.84c1.24,0.4,2.48,0.17,3.7-0.09c4.98-1.03,9.99-1.96,14.92-3.2c2.46-0.62,2.92-0.34,2.14,2.2
		c-2.7,8.73-5.82,17.31-9.67,25.6c-2.74,5.9-5.68,11.7-8.53,17.54c0,0,0.07-0.08,0.07-0.08c-2.55,3.09-4.61,6.47-6.31,10.09
		c0,0,0.07-0.08,0.07-0.08c-0.78,0.02-0.95,0.72-1.26,1.2c-4.88,7.44-10.27,14.5-15.95,21.35c-0.62,0.75-1.64,1.33-1.6,2.53
		c0,0,0.06-0.06,0.06-0.06c-0.88,0-1.24,0.52-1.32,1.33c0,0,0.08-0.09,0.08-0.09c-2.14,1.5-3.77,3.47-5.08,5.71
		c0,0,0.08-0.09,0.08-0.09c-2.56,2.28-5.43,4.28-6.93,7.54c0,0,0.01-0.01,0.01-0.01c-2.18,0.44-3.24,2.19-4.4,3.81
		c0,0,0.08-0.08,0.08-0.08c-0.49-0.03-0.74,0.2-0.7,0.7c0,0,0.07-0.07,0.07-0.07c-0.53-0.08-0.76,0.16-0.7,0.69
		c0,0,0.07-0.07,0.07-0.07c-2.06,1.07-3.74,2.57-5.08,4.46c0,0,0.09-0.08,0.09-0.08c-4.36,3.1-8.46,6.55-12.5,10.05
		c-0.8,1.57-2.35,2.2-3.75,3.01c-1.61,0.4-2.84,1.36-3.85,2.63c0,0,0.09-0.09,0.09-0.09c-5.17,2.93-10.24,6.01-15.09,9.46
		c0,0,0.09-0.07,0.09-0.07c-1.71,0.48-3.3,1.14-4.47,2.56c0,0,0.09-0.06,0.09-0.06c-0.82-0.2-1.38,0.36-2.01,0.68
		c-10.7,5.56-21.7,10.41-33.09,14.36c-17.45,6.06-35.38,9.91-53.76,11.67c-1.47,0.14-2.49,0.23-2.46,2.23
		c0.28,19.88,0.45,39.77,0.69,59.66c0.01,0.78-0.43,2.06,1.19,1.96c0.11,0.5,0.5,0.56,0.92,0.6c9.77,0.95,19.42,2.59,28.98,4.89
		c3.98,0.96,7.79,2.72,11.98,2.76c0.22,0.02,0.45,0.04,0.67,0.06c0.41,1.25,1.64,1.14,2.55,1.47c3.6,1.31,7.29,2.39,10.84,3.82
		c15.09,6.06,29.6,13.15,43.39,21.94c9.11,5.81,17.78,12.1,26.42,18.51c3.15,2.34,5.81,5.31,9.31,7.18c0,0-0.08-0.09-0.08-0.09
		c1.25,2,3.17,3.22,5.08,4.47c0,0-0.1-0.1-0.1-0.1c2.66,3.04,5.55,5.84,8.84,8.21l-0.07-0.08c-0.05,0.52,0.18,0.75,0.7,0.69
		c0,0-0.07-0.07-0.07-0.07c-0.03,0.49,0.21,0.73,0.7,0.69c0,0-0.06-0.07-0.06-0.07c-0.08,0.54,0.17,0.76,0.69,0.69
		c0,0-0.07-0.07-0.07-0.07c-0.02,0.49,0.19,0.74,0.7,0.7c0,0-0.07-0.08-0.07-0.08c0.43,1.29,1.31,2.12,2.57,2.58
		c0,0-0.07-0.08-0.07-0.08c-0.06,0.53,0.14,0.79,0.69,0.69c0,0-0.07-0.06-0.07-0.06c-0.05,0.51,0.18,0.74,0.69,0.69
		c0,0-0.06-0.07-0.06-0.07c-0.07,1.01,0.84,1.35,1.36,1.93c4.87,5.38,9.75,10.75,14.66,16.08c0.87,0.94,1.34,2.34,2.8,2.68
		c0,0-0.07-0.07-0.07-0.07c-0.05,1.21,0.97,1.77,1.6,2.53c10.3,12.4,19.85,25.37,29.06,38.59c7.55,10.85,2.23,24.38-10.6,27.08
		c-9.76,2.05-19.57,3.85-29.35,5.77c-6.51,1.28-7.44,0.81-11.16-4.52c-3.78-5.41-7.46-10.91-12.18-15.6c0,0,0.07,0.08,0.07,0.08
		c-0.42-1.42-1.26-2.5-2.57-3.22c0,0,0.07,0.09,0.07,0.09c-0.38-1.45-1.25-2.51-2.57-3.2c0,0,0.08,0.09,0.08,0.09
		c-0.65-1.63-1.73-2.9-3.2-3.84c0,0,0.09,0.09,0.09,0.09c-0.04-0.43-0.24-0.71-0.71-0.71c0,0,0.07,0.08,0.07,0.08
		c-2.42-3.82-5.52-7.04-8.82-10.09c0,0,0.08,0.1,0.08,0.1c-0.03-0.45-0.24-0.7-0.71-0.71c0,0,0.09,0.08,0.09,0.08
		c-5.59-6.96-12.02-13.09-18.84-18.82l0.08,0.08c0-0.47-0.26-0.68-0.71-0.71c0,0,0.09,0.09,0.09,0.09
		c-5.37-5.6-11.2-10.68-17.59-15.09c0,0,0.09,0.09,0.09,0.09c-5.47-4.92-11.26-9.41-17.59-13.19c0,0,0.08,0.07,0.08,0.07
		c-2.98-2.86-6.36-5.15-10.06-6.96c0,0,0.08,0.08,0.08,0.08c-3.43-2.88-7.15-5.28-11.33-6.93c0,0,0.08,0.06,0.08,0.06
		c-3.4-3.11-7.7-4.71-11.68-6.81c-11.11-5.86-22.66-10.75-34.62-14.64c-1.87-0.61-2.59-0.47-2.5,1.76c0.2,5.2,0.14,10.41,0.25,15.61
		c0.02,0.81-0.48,2,0.98,2.22c0,0.35,0,0.7,0.01,1.05c-0.95,0.54-0.63,1.45-0.63,2.24c0.21,33.05,1.46,66.06,3.25,99.06
		c0.04,0.77-0.51,2.04,1.08,2.07c0.52,3.38,0.8,6.78,0.6,10.2c-0.29,0.18-1.02-1.37-0.95,0.22c0.12,2.9,0.53,5.82,0.37,8.7
		c-0.32,5.66,1.9,11.24,0.19,16.97c-0.98,3.3-2.5,6.31-3.84,9.43c0,0,0.08-0.1,0.08-0.1c-1.11,0.87-2.09,1.85-2.57,3.22
		c0,0,0.07-0.07,0.07-0.07c-1.17-0.01-1.28,1.01-1.69,1.74c-0.7,0.31-1.4,0.63-2.09,0.94c-2.5,1.66-5.25,2.72-8.11,3.63
		c-1.94,0.62-4.13,0.3-5.87,1.6c-1.54,0.68-3.09,0.39-4.63,0.02c-0.6-1.13-1.77-0.88-2.74-1.11c-13.35-3.08-21.11-12.99-20.67-26.68
		c0.32-9.87,0.97-19.74,1.19-29.61c0.11-5.15,1.19-10.29,0.23-15.45c0.24-1.46,0.49-2.92,0.73-4.38c-0.58-2.48,0.38-4.9,0.38-7.37
		c-0.01-1.85-1.58-3.29-0.86-5.3c1.28-3.54,1.46-7.28,1.5-11.03c0.06-4.89,0.14-9.77,0.28-14.66c0.63-22.14,1.29-44.27,1.95-66.4
		c0.03-1.04-0.36-2.39-1.34-1.76c-1.8,1.15-3.6,0.4-5.36,0.68c-25.45,4.16-49.38,12.55-71.67,25.54c-3.45,2.01-7.08,3.79-10.03,6.57
		c0,0,0.09-0.08,0.09-0.08c-4.57,2.4-8.86,5.21-12.58,8.83c0,0,0.09-0.08,0.09-0.08c-5.23,3.02-9.59,7.1-13.84,11.32
		c0,0,0.09-0.09,0.09-0.09c-0.45,0.02-0.69,0.26-0.71,0.71c0,0,0.08-0.07,0.08-0.07c-0.49-0.02-0.76,0.17-0.7,0.7
		c0,0,0.07-0.08,0.07-0.08c-2.49,1.48-4.64,3.35-6.32,5.72c0,0,0.09-0.08,0.09-0.08c-1.26,0.45-2.19,1.24-2.57,2.57
		c0,0,0.06-0.06,0.06-0.06c-0.88-0.01-1.31,0.43-1.31,1.31c0,0,0.06-0.06,0.06-0.06c-2.22,1.16-3.79,2.97-5.06,5.07
		c0,0,0.07-0.07,0.07-0.07c-2.9,1.99-5.02,4.69-6.96,7.57c0,0,0.08-0.08,0.08-0.08c-0.87,0.04-1.13,0.83-1.59,1.34
		c-8.66,9.74-16.71,19.95-23.59,31.02c-1.81,2.92-4.19,3.89-7.29,4.38c-3.85,0.61-7.81,0.79-11.47,2.34
		c-0.88,0.02-1.77,0.04-2.65,0.06c-0.85-0.01-1.18,1.17-2.12,0.96c-3.13-0.72-6.01,0.61-8.98,1.14c-1.89,1.27-3.99,1.82-6.25,1.88
		c-1.19-0.43-2.05,0.52-3.09,0.72c-0.87,0.16-1.84,1.19-2.59-0.21c2.76-6.87,5.42-13.78,8.3-20.6c2.67-6.3,4.96-12.67,5.26-19.59
		c0,0,0.1-0.28,0.1-0.28l0.27-0.01c0,0-0.09,0-0.09,0c1.36-3.06,2.48-6.25,4.12-9.14c5.04-8.89,11.18-17.04,17.38-25.15
		c3.5-4.59,7.86-8.45,11.01-13.32c0,0-0.07,0.08-0.07,0.08c0.77-0.12,1.29-0.48,1.32-1.33c0,0-0.08,0.09-0.08,0.09
		c3.68-3.05,7.13-6.32,10.07-10.09c0,0-0.08,0.08-0.08,0.08c2.07-0.86,3.34-2.71,4.99-4.09c5.08-4.23,10.07-8.56,15.1-12.86
		c0,0-0.08,0.08-0.08,0.08c4.92-2.93,9.44-6.41,13.84-10.06c0,0-0.08,0.07-0.08,0.07c2-0.58,3.65-1.73,5.09-3.2
		c0,0-0.1,0.09-0.1,0.09c1.4-0.21,2.39-1.21,3.52-1.91c31.32-19.27,65.19-31.2,101.74-35.43c1.7-1.28,3.7-0.5,5.54-0.81
		c1.31-0.99,0.95-2.44,0.97-3.75c0.3-17.48,0.57-34.97,0.86-52.45c0.12-7.11,0.12-6.97-7.11-7.59c-5.52-0.47-11.01-1.33-16.51-2.02
		c-0.61,0.08-1.23,0.16-1.84,0.24c0,0,0.17,0,0.17,0c-0.43-0.06-0.85-0.12-1.28-0.18c-0.45-0.81-1.18-0.99-2.05-1.15
		c-3.15-0.59-6.31-1.17-9.4-1.98c-24.08-6.29-46.3-16.59-66.59-31.04c-0.74-0.53-1.38-1.3-2.42-1.26c0,0,0.09,0.07,0.09,0.07
		c-3.11-3.37-7.08-5.69-10.59-8.57c-2.7-2.22-5.03-4.93-8.24-6.52c0,0,0.09,0.08,0.09,0.08c-0.06-0.42-0.22-0.73-0.72-0.69
		l0.07,0.07c0.05-0.52-0.2-0.73-0.7-0.69c0,0,0.09,0.08,0.09,0.08c-2.86-3.26-5.94-6.28-9.46-8.82l0.07,0.07
		c-0.43-1.28-1.29-2.14-2.57-2.57c0,0,0.07,0.07,0.07,0.07c-0.03-0.84-0.49-1.27-1.32-1.33c0,0,0.07,0.07,0.07,0.07
		c-5.01-6.07-10.27-11.9-15.71-17.59c0,0,0.09,0.09,0.09,0.09c-0.74-1.55-1.57-3.03-3.22-3.82c0,0,0.06,0.07,0.06,0.07
		c-0.17-1.22-0.85-2.06-1.94-2.59c0,0,0.09,0.09,0.09,0.09c-2.85-4.07-5.71-8.13-8.55-12.2c-11.53-16.53-20.34-34.45-27.13-53.38
		c-1.16-3.22-0.72-4,2.82-3.78c5.37,0.33,10.47-1.36,15.9-1.28c11.72,0.16,23.46-1.11,35.18-1.91c2.6-0.18,4.17,0.68,5.5,2.98
		c4.38,7.55,9.13,14.88,14.52,21.76c2.39,3.06,4.31,6.53,7.48,8.95c0,0-0.06-0.07-0.06-0.07c1.57,2.98,3.62,5.54,6.32,7.57
		c0,0-0.07-0.08-0.07-0.08c-0.12,1.01,0.75,1.44,1.26,2.03c5.03,5.83,10.37,11.37,15.98,16.64c1.48,1.39,2.64,3.2,4.7,3.89
		c0,0-0.08-0.07-0.08-0.07c5.02,5.69,11.09,10.2,17.06,14.77c5.16,3.95,10.23,8.05,16.13,10.92c0,0-0.08-0.07-0.08-0.07
		c0.05,0.93,0.92,1.05,1.48,1.42c14.94,9.84,31.17,16.68,48.6,20.68c3.49,0.8,3.84,0.59,3.87-3c0.1-10.51,0.19-21.02,0.2-31.54
		c0.02-32.58,0.02-65.16-0.02-97.74c-0.01-4.98,1.93-8.59,6.55-10.68c0.99-0.45,1.88-1.13,2.81-1.7c3.71-1.39,7.27-0.83,10.85,0.63
		c11.23,4.56,19.96,17.77,19.42,29.51c-0.96,1.07-0.51,2.39-0.51,3.58c-0.05,18.72-0.06,37.43-0.07,56.15
		c-0.01,17.16-0.03,34.31,0.01,51.47c0,1.12-0.82,2.92,1.61,2.83C-287.27,183.57-280.98,183.33-274.83,181.77z M-327.22,231.99
		c3.63-3.46,7.28-6.59,10.5-10.11c2.76-3.01,5.53-5.21,9.9-4.15c0.68,0.17,2.02,0.45,1.99-0.75c-0.05-2.32,1.1-4.85-1.63-6.77
		c-2.33-1.64-2.74-5.1-1.44-7.65c1.4-2.77,3.77-3.71,6.74-3.43c2.92,0.28,4.42,2.1,5.03,4.77c0.62,2.71-0.64,6.17-3.38,6.91
		c-3.43,0.93-3.32,3.1-3.04,5.54c0.31,2.71-0.53,3.64-3.39,3.49c-2.11-0.12-4.52-1.11-6.47,0.99c-4.66,5.04-9.6,9.83-13.85,15.25
		c-0.96,1.23-1.98,2.45-1.83,4.17c0.53,5.73-0.25,11.44-0.38,17.16c-0.35,14.88-0.81,29.77-1.1,44.65
		c-0.05,2.46-0.74,3.44-3.34,3.56c-4.67,0.21-9.35,0.66-13.98,1.31c-31.69,4.46-61.28,15.02-88.94,31.03
		c-1.42,0.82-3.87,1.1-3.74,3.27c0.33,5.17-1.64,10.51,1.06,15.5c0.05,0.09,0.13,0.16,0.2,0.23c4.22,4.17,8.5,8.28,12.62,12.54
		c1.53,1.59,2.61,1.56,4.48,0.41c13.04-8.04,26.6-15.34,41.38-19.35c10.83-2.93,19.1-8.53,25.79-17.1c0.13-0.16,0.29-0.3,0.44-0.44
		c1.08-0.97,1.45-1.97,1.08-3.55c-0.68-2.92,0.37-5.36,3.15-6.78c2.63-1.34,5.1-0.83,7.22,1.05c1.95,1.73,2.32,5.04,0.93,7.51
		c-1.48,2.62-3.86,3.27-6.68,2.85c-0.77-0.11-1.55-0.93-2.33-0.14c-3.21,3.24-6.39,6.5-9.59,9.75c1.25,0.38,2.07,0.27,2.87,0.09
		c7.72-1.79,15.58-2.6,23.43-3.48c3.1-0.34,3.93,0.65,3.82,3.67c-0.56,15.5-0.89,31.01-1.43,46.51c-0.07,2.09,0.56,3.48,2.01,4.89
		c4.03,3.91,8.29,7.68,11.77,12.05c3.91,4.91,8.42,6.86,14.61,6.04c2.36-0.31,3.16-0.71,3.09-3.18c-0.44-15.3-0.71-30.6-1.07-45.9
		c-0.17-7.08-0.43-14.15-0.6-21.23c-0.02-0.96-0.62-2.55,1.6-1.84c8.51,2.71,17.12,5.18,25.24,8.94c2.33,1.08,2.88,0.86,2.87-1.61
		c-0.03-6.46-0.05-12.91,0.09-19.37c0.04-2.03-0.35-3.64-2-4.91c-3.95-3.02-5.71-6.94-4.76-11.93c0.08-0.4-0.07-0.85,0.01-1.24
		c0.45-2.21-0.69-2.88-2.66-3.07c-4.87-0.47-9.73-0.98-14.58-1.62c-2.44-0.32-4.86-0.45-4.89-4.2c-0.24-22.9-0.63-45.81-1.14-68.71
		c-0.07-3.25,1-3.96,4.03-4.07c11.78-0.41,23.38-2.21,34.82-5.06c1.73-0.43,2.44-1.1,2.33-2.91c-0.14-2.28-0.08-4.58-0.01-6.87
		c0.03-0.95-0.35-2.47,1.18-2.4c1.36,0.06,0.7,1.47,0.73,2.27c0.07,2.29,0.09,4.59-0.05,6.87c-0.1,1.7,0.55,1.89,1.98,1.47
		c2.89-0.86,5.78-1.77,8.73-2.34c1.68-0.32,1.91-1.11,1.88-2.54c-0.07-4.06-0.02-8.12-0.02-12.18c0-8.09,0-16.18,0-24.63
		c-7.99,3.03-15.84,5.39-23.96,6.7c-0.46,0.07-0.9,0.47-1.3,0.77c-5.1,3.73-8.74,8.1-7.33,15.08c0.29,1.45,0.19,2.58,2.13,2.55
		c1.89-0.03,2.59,1.02,2.67,2.98c0.39,8.85,0.45,8.83-8.36,8.7c-1.66-0.03-3.58-0.08-3.15-2.3c0.62-3.14-2.51-7.45,2.02-9.23
		c2.1-0.82,2.87-1.45,2.6-3.49c-0.72-5.49,0.32-10.27,5.34-13.5c0.2-0.13,0.26-0.48,0.52-0.99c-1.56,0.15-2.87,0.3-4.19,0.41
		c-5.7,0.51-11.41,1.06-17.14,0.88c-4.43-0.14-5.3-1.03-5.31-5.34c-0.03-14.89-0.05-29.78-0.07-44.67c0-1.3,0-2.61,0-4.08
		c-4.1,2.76-7.18,2.89-9.48,0.56c-2.19-2.23-2.55-6.28-0.76-8.62c2.18-2.84,5.13-2.94,9.92-0.36c0-21.6,0.02-43.24-0.03-64.87
		c-0.01-2.3-0.63-4.52-2.04-6.45c-3.58-4.9-8.37-8.43-14.18-9.58c-7.63-1.51-10,0.02-9.98,7.66c0.09,32.17,0.06,64.35,0.07,96.52
		c0,10.62-0.02,21.24-0.09,31.86c-0.04,5.29-4.67,9.57-9.42,8.56c-7.62-1.62-15.21-3.42-22.43-6.45
		c-5.51-2.31-10.97-4.76-16.87-7.32c0,14.9,0.02,29.46-0.03,44.03c-0.01,1.67,1.07,1.83,2.17,2.04c4.32,0.85,8.53,2.18,12.89,2.91
		c9.46,1.58,18.93,2.9,28.53,2.93C-330.56,229.13-328.45,229.7-327.22,231.99z M-269.76,338.46c-0.02,0-0.04,0-0.07,0
		c0,3.75,0.07,7.5-0.03,11.24c-0.04,1.54,0.39,2.46,1.86,3.11c21.98,9.79,42.02,22.75,60.91,37.57
		c22.11,17.35,42.14,36.82,59.54,58.9c4.37,5.55,8.21,11.51,12.28,17.3c1.17,1.66,2.4,2.59,4.69,1.93c9.9-2.84,20.08-4.45,30.2-6.28
		c5.23-0.95,7.51-3.15,8.05-8.35c0.36-3.51-0.2-6.8-2.36-9.77c-14.41-19.76-28.86-39.47-45.94-57.09
		c-36.98-38.17-79.75-66.38-132.57-77.49c-3.04-0.64-3.44,0.23-3.13,2.73c0.09,0.72,0.16,1.46,0.08,2.18
		c-0.31,2.86,0.4,5.14,2.86,6.98c2.77,2.08,4.26,4.82,3.72,8.6C-270.08,332.79-269.76,335.65-269.76,338.46z M-427.84,199.37
		c0-7.07-0.11-13.62,0.06-20.16c0.06-2.31-0.71-3.89-2.3-5.44c-5.66-5.53-11.4-10.99-16.73-16.82c-2.55-2.79-5.22-3.68-8.75-3.26
		c-1.37,0.17-2.43,0.24-2.41,2.01c0.01,1.25-0.55,2.03-2.01,2.28c-8.28,1.41-10.61-0.77-9.58-9.02c0.28-2.24,1.64-3.21,3.62-2.94
		c2.77,0.37,6.16-1.32,8.12,2.14c0.09,0.17,0.1,0.42,0.06,0.61c-0.5,2.94,1.21,3.32,3.46,2.91c3.54-0.65,6.15,0.61,8.32,3.44
		c1.67,2.19,3.7,4.1,5.68,6.26c0.49-0.81,0.67-0.96,0.67-1.12c0.05-9.99,0.04-19.99,0.15-29.98c0.01-1.37-0.73-2.08-1.53-2.87
		c-5.56-5.5-10.61-11.45-15.4-17.61c-6.58-8.47-12.54-17.37-17.81-26.72c-1.16-2.06-2.54-4.07-5.49-3.87
		c-13.71,0.93-27.41,1.83-41.13,2.69c-1.89,0.12-2.33,0.78-1.59,2.54c1.57,3.73,2.9,7.57,4.55,11.27
		c11.87,26.56,29.09,49.38,49.29,70.09C-456.35,178.35-443.08,189.61-427.84,199.37z M-106.22,85.72c-1.17,0.16-1.97,0.22-2.75,0.39
		c-8.94,1.94-17.87,3.96-26.83,5.79c-2.43,0.5-3.99,1.65-5.4,3.66c-12.8,18.22-27.49,34.78-44.35,49.34
		c-8.73,7.54-17.83,14.6-27.84,20.42c-0.56,0.33-1.98,0.32-1.69,2.07c0.79,4.73,0.35,9.54,0.27,14.31
		c-0.05,2.69,0.45,3.64,3.48,4.24c4.54,0.9,1.55,5.16,2.26,7.84c0.48,1.82-0.28,3.18-2.47,3.48c-8.18,1.13-9.64-0.12-9.39-8.32
		c0.01-0.21,0.03-0.42,0.01-0.62c-0.18-1.7,0.61-2.46,2.29-2.59c0.91-0.07,2.2,0.29,2.19-1.44c-0.03-5.21,0.02-10.41,0.04-15.62
		c0-1.39-0.42-1.56-1.68-0.83c-3.69,2.13-7.44,4.16-11.23,6.11c-0.97,0.5-1.3,0.96-1.3,2.09c0.02,11.97,0,23.95-0.15,35.92
		c-0.03,2.22,0.49,2.51,2.42,1.63c12.81-5.78,25.41-11.99,37.07-19.85c32.06-21.6,56.82-49.77,74.74-83.98
		C-112.54,102.12-109.31,94.16-106.22,85.72z M-441.89,341.43c-14.09,9.27-27.41,19.01-39.52,30.33c-16,14.96-29.5,31.95-40,51.13
		c-5.69,10.38-8.1,22.22-12.97,33.03c-0.94,2.1,0.69,2.1,1.88,1.79c7.05-1.83,14.28-2.61,21.47-3.59c3.96-0.54,6.57-2.14,8.94-5.57
		c20.17-29.29,43.95-55.06,74.16-74.35c2.03-1.3,1.61-1.93,0.21-3.29c-4.27-4.11-8.39-8.37-12.62-12.53
		c-1.2-1.18-1.63-2.48-1.58-4.17C-441.81,350.08-441.89,345.96-441.89,341.43z M-330.96,396.58c-0.31,0.46-0.5,0.61-0.5,0.77
		c-0.47,17.79-0.89,35.59-1.41,53.38c-0.05,1.6,0.79,2.46,1.75,3.42c5.5,5.53,10.97,11.11,16.5,16.61c1.41,1.4,2.05,2.79,1.89,4.92
		c-0.44,5.81-0.49,11.64-0.76,17.47c-0.1,2.1-0.53,4.19,2.71,4.16c0.9-0.01,1.63,0.9,2.07,1.76c1.45,2.85,0.9,5.74-0.24,8.45
		c-0.93,2.21-3.28,1.16-5.01,1.53c-0.6,0.13-1.25,0.06-1.87,0.04c-3.1-0.13-4.84-1.81-5.28-5.06c-0.46-3.44,0.72-6.03,3.59-6.68
		c1.74-0.39,1.8-1.28,1.85-2.58c0.14-4.06-0.18-8.21,0.59-12.15c1.32-6.75-1.21-11.39-6.28-15.53c-4.2-3.43-7.9-7.46-11.92-11.32
		c-1.01,17.15-1.48,34.28-1.92,51.42c-0.06,2.41,0.82,4.7,1.99,6.83c4.11,7.46,10.64,9.86,18.84,9.49
		c11.93-0.54,19.67-8.95,18.94-20.78c-0.89-14.33-1.66-28.68-2.36-43.02c-0.68-14.03-1.26-28.07-1.76-42.12
		c-0.07-1.92-0.56-2.52-2.49-2.36c-2.48,0.21-5,0.03-7.49,0.19c-2.03,0.13-3.42-0.5-4.88-2.03
		C-319.77,407.69-325.38,402.2-330.96,396.58z M-412.74,208.17c0-9.57-0.54-18.67,0.16-27.66c0.59-7.56-1.23-13.36-7.72-17.41
		c-4.88-3.05-6.56-7.4-5.59-12.95c1.05-5.97-0.74-10.66-6.01-14c-2.09-1.32-3.27-3.86-5.76-5.02c0,10.38,0.03,20.47-0.03,30.56
		c-0.01,1.51,0.56,2.52,1.61,3.51c2.58,2.42,5.05,4.96,7.61,7.39c1.8,1.71,2.68,3.61,2.59,6.23c-0.23,6.55-0.15,13.11-0.22,19.67
		c-0.01,1.06-0.13,2.07,0.99,2.73C-421.19,203.53-417.37,206.01-412.74,208.17z M-398.88,214.96c0-15.97-0.01-31.35,0.02-46.73
		c0-1.22-0.8-1.85-1.54-2.56c-4.22-4.01-8.39-8.07-12.67-12.02c-3.44-3.17-7.02-6.2-10.83-9.55c0,3.58,0.17,6.6-0.05,9.6
		c-0.18,2.52,0.53,4.28,2.57,5.85c2.88,2.21,5.45,4.82,8.27,7.12c1.75,1.42,2.47,2.99,2.44,5.32c-0.16,11.65-0.11,23.3-0.15,34.95
		c0,1.13-0.21,2.2,1.22,2.84C-406.21,211.32-402.9,213.01-398.88,214.96z M-385.19,219.98c0-15.66,0-30.96,0.01-46.25
		c0-1.04-0.36-1.67-1.29-2.25c-4.1-2.52-8.14-5.15-12.2-7.74c1.86,1.48,1.9,3.4,1.88,5.56c-0.14,14.57-0.18,29.14-0.22,43.72
		c0,1.07-0.42,2.43,0.99,3.02C-392.59,217.45-389.2,218.98-385.19,219.98z M-379.13,221.9c0.53-0.86,0.31-1.82,0.32-2.74
		c0.1-13.12-0.07-26.25,0.4-39.35c0.15-4.07-1.85-5.1-4.74-6.2c-0.64,1.12-0.35,2.18-0.35,3.18c-0.04,13.33-0.03,26.66-0.07,39.98
		C-383.59,221.11-383.64,221.11-379.13,221.9z M-239.17,178.47c-1.93,1.12-4.84,0.53-4.87,3.62c-0.11,11.97-0.11,23.94-0.14,35.92
		c0,0.58-0.21,1.23,0.77,1.34c1.97,0.22,4.17-1.73,4.17-3.8c0.02-6.04,0.05-12.08,0.06-18.11
		C-239.16,191.22-239.17,185-239.17,178.47z M-237.25,216.87c3.41-0.3,4.71-1.7,4.65-5.21c-0.18-10.41,0.08-20.82,0.16-31.23
		c0.01-1.59,0-3.17,0-4.65c-4.1,0.46-5.19,2.68-4.87,6.44c0.35,4.13,0.06,8.32,0.06,12.49
		C-237.25,202.08-237.25,209.45-237.25,216.87z"/>
	<path class="st0" d="M-529.56,426.01c0,0-0.27,0.01-0.27,0.01s-0.09,0.29-0.1,0.28C-529.8,426.21-529.68,426.11-529.56,426.01z"/>
	<path class="st1" d="M-293.49,299.06c-0.69-0.26-0.48-0.67-0.17-1.09C-293.24,298.28-293.4,298.68-293.49,299.06z"/>
	<path class="st1" d="M-292.3,299.49c-0.37,0.1-0.75,0.21-1.12,0.31c0.06-0.19,0.1-0.39,0.13-0.58
		C-292.92,299.13-292.52,298.99-292.3,299.49z"/>
	<path class="st1" d="M-293.82,351.48c-0.03-0.14-0.05-0.27-0.08-0.41c0.08-0.01,0.16-0.01,0.24-0.02c0.02,0.13,0.04,0.27,0.06,0.4
		C-293.67,351.47-293.75,351.47-293.82,351.48z"/>
	<path class="st0" d="M-273.57,181.63c0,0,0.1-0.09,0.1-0.09C-273.46,181.54-273.57,181.63-273.57,181.63z"/>
	<path class="st1" d="M-327.22,231.99c-1.22-2.29-3.34-2.86-5.94-2.86c-9.6-0.02-19.07-1.35-28.53-2.93
		c-4.37-0.73-8.57-2.07-12.89-2.91c-1.1-0.22-2.18-0.38-2.17-2.04c0.05-14.56,0.03-29.13,0.03-44.03c5.9,2.57,11.36,5.01,16.87,7.32
		c7.22,3.03,14.81,4.83,22.43,6.45c4.74,1.01,9.38-3.27,9.42-8.56c0.08-10.62,0.09-21.24,0.09-31.86c0-32.17,0.02-64.35-0.07-96.52
		c-0.02-7.64,2.35-9.18,9.98-7.66c5.82,1.15,10.6,4.68,14.18,9.58c1.41,1.93,2.04,4.15,2.04,6.45c0.05,21.63,0.03,43.26,0.03,64.87
		c-4.8-2.58-7.74-2.48-9.92,0.36c-1.79,2.33-1.44,6.39,0.76,8.62c2.3,2.34,5.38,2.21,9.48-0.56c0,1.47,0,2.78,0,4.08
		c0.02,14.89,0.04,29.78,0.07,44.67c0.01,4.31,0.88,5.2,5.31,5.34c5.74,0.18,11.44-0.37,17.14-0.88c1.32-0.12,2.63-0.26,4.19-0.41
		c-0.26,0.51-0.32,0.86-0.52,0.99c-5.02,3.22-6.06,8.01-5.34,13.5c0.27,2.04-0.5,2.66-2.6,3.49c-4.53,1.78-1.41,6.09-2.02,9.23
		c-0.43,2.21,1.48,2.27,3.15,2.3c8.82,0.14,8.76,0.15,8.36-8.7c-0.09-1.96-0.79-3.01-2.67-2.98c-1.94,0.03-1.83-1.1-2.13-2.55
		c-1.41-6.97,2.23-11.35,7.33-15.08c0.41-0.3,0.84-0.69,1.3-0.77c8.13-1.31,15.97-3.67,23.96-6.7c0,8.46,0,16.54,0,24.63
		c0,4.06-0.04,8.12,0.02,12.18c0.02,1.43-0.2,2.21-1.88,2.54c-2.95,0.57-5.84,1.49-8.73,2.34c-1.43,0.42-2.09,0.24-1.98-1.47
		c0.14-2.28,0.12-4.58,0.05-6.87c-0.03-0.8,0.63-2.2-0.73-2.27c-1.53-0.07-1.15,1.45-1.18,2.4c-0.07,2.29-0.13,4.59,0.01,6.87
		c0.11,1.81-0.6,2.48-2.33,2.91c-11.44,2.85-23.05,4.65-34.82,5.06c-3.03,0.11-4.11,0.82-4.03,4.07c0.52,22.9,0.9,45.8,1.14,68.71
		c0.04,3.75,2.46,3.88,4.89,4.2c4.85,0.64,9.71,1.15,14.58,1.62c1.97,0.19,3.12,0.87,2.66,3.07c-0.08,0.4,0.07,0.84-0.01,1.24
		c-0.95,4.99,0.81,8.91,4.76,11.93c1.65,1.26,2.04,2.88,2,4.91c-0.14,6.45-0.13,12.91-0.09,19.37c0.01,2.48-0.54,2.69-2.87,1.61
		c-8.12-3.76-16.73-6.23-25.24-8.94c-2.23-0.71-1.63,0.88-1.6,1.84c0.17,7.08,0.43,14.15,0.6,21.23c0.36,15.3,0.64,30.6,1.07,45.9
		c0.07,2.47-0.73,2.87-3.09,3.18c-6.19,0.82-10.7-1.13-14.61-6.04c-3.48-4.37-7.74-8.13-11.77-12.05c-1.45-1.41-2.09-2.8-2.01-4.89
		c0.54-15.5,0.88-31.01,1.43-46.51c0.11-3.02-0.72-4.01-3.82-3.67c-7.86,0.87-15.71,1.69-23.43,3.48c-0.8,0.19-1.62,0.29-2.87-0.09
		c3.19-3.25,6.38-6.51,9.59-9.75c0.78-0.79,1.56,0.03,2.33,0.14c2.83,0.42,5.21-0.23,6.68-2.85c1.39-2.47,1.02-5.78-0.93-7.51
		c-2.13-1.89-4.6-2.39-7.22-1.05c-2.79,1.42-3.84,3.85-3.15,6.78c0.37,1.59,0,2.59-1.08,3.55c-0.15,0.14-0.31,0.28-0.44,0.44
		c-6.69,8.57-14.96,14.17-25.79,17.1c-14.78,4-28.33,11.31-41.38,19.35c-1.87,1.15-2.94,1.18-4.48-0.41
		c-4.12-4.26-8.4-8.37-12.62-12.54c-0.07-0.07-0.16-0.15-0.2-0.23c-2.7-5-0.73-10.34-1.06-15.5c-0.14-2.17,2.31-2.44,3.74-3.27
		c27.66-16.01,57.25-26.57,88.94-31.03c4.63-0.65,9.31-1.11,13.98-1.31c2.6-0.12,3.29-1.1,3.34-3.56
		c0.29-14.88,0.75-29.77,1.1-44.65c0.13-5.72,0.91-11.43,0.38-17.16c-0.16-1.72,0.86-2.95,1.83-4.17
		c4.24-5.42,9.18-10.21,13.85-15.25c1.95-2.11,4.35-1.11,6.47-0.99c2.86,0.16,3.7-0.78,3.39-3.49c-0.28-2.44-0.39-4.62,3.04-5.54
		c2.74-0.74,4-4.2,3.38-6.91c-0.61-2.67-2.12-4.49-5.03-4.77c-2.97-0.29-5.34,0.66-6.74,3.43c-1.29,2.56-0.88,6.01,1.44,7.65
		c2.72,1.92,1.57,4.45,1.63,6.77c0.03,1.2-1.31,0.92-1.99,0.75c-4.36-1.06-7.14,1.14-9.9,4.15
		C-319.95,225.4-323.6,228.53-327.22,231.99z M-323.68,279.24c5.01,1.48,7.42,0.98,9.16-1.73c1.58-2.45,1.35-5.62-0.56-7.83
		c-2-2.3-4.55-2.52-8.97-0.67c0-3.26,0.33-6.48-0.07-9.61c-0.73-5.6,1.18-9.85,5.58-13.16c0.08-0.06,0.15-0.15,0.21-0.23
		c0.78-0.98,1.57-1.2,2.94-0.87c4.05,0.99,7.66-1.64,8.1-5.58c0.42-3.76-2.52-7.09-6.22-7.05c-3.85,0.04-7.1,3.37-6.06,7.35
		c0.91,3.45-0.88,4.92-2.73,6.79c-1.02,1.04-2.06,2.06-3.12,3.06c-0.8,0.75-1.26,1.56-1.12,2.74c1.18,9.84,0.06,19.72,0.5,29.59
		c0.48,10.91,0.08,21.87,0.02,32.8c-0.01,1.32,0.26,2.34,1.34,3.27c2.6,2.24,5.02,4.68,7.61,6.93c1.44,1.25,1.98,2.6,1.97,4.55
		c-0.12,19.67-0.12,39.34-0.19,59.01c-0.01,1.71,0.72,3.96-2.48,3.71c-0.94-0.08-0.87,1.05-0.9,1.71c-0.09,2.49-0.13,4.99-0.14,7.49
		c-0.01,1.53,0.75,2.08,2.32,2.19c8.92,0.59,9.75-0.26,9.07-9.19c-0.13-1.75-0.75-2.54-2.46-2.21c-2.91,0.56-3.39-0.82-3.37-3.43
		c0.16-20.09,0.2-40.17,0.24-60.26c0-0.95,0.26-1.84-0.67-2.82c-2.79-2.92-5.51-5.9-8.66-8.45c-0.72-0.59-1.55-1.13-1.55-2.21
		c-0.01-3.76,0-7.51,0-11.95c6.28,6.68,12.58,11.98,17.97,18.17c0.32,0.36,0.99,0.84,1.29,0.72c2.84-1.1,3.93,1.29,5.61,2.62
		c2.29,1.82,4.86,2.37,7.55,0.85c2.45-1.39,3.43-3.63,2.98-6.34c-0.49-2.96-2.34-4.8-5.33-5.38c-3.43-0.66-5.5,1.25-7.09,3.91
		c-0.93,1.56-2.04,3.05-3.8,1.31c-4.35-4.28-8.52-8.74-12.9-13.27c5.08-0.76,7.16-2.51,7.32-5.94c0.15-3.16-1.66-5.61-4.76-6.46
		c-3.57-0.98-5.81,0.42-8.33,5.37C-324.31,292.14-323.51,285.74-323.68,279.24z M-315.76,123.8c-0.03,0-0.05,0-0.08,0
		c0,17.69-0.02,35.39,0.04,53.08c0.01,1.79-0.44,3.1-1.72,4.39c-5.35,5.38-10.63,10.84-15.86,16.34c-1.27,1.33-2.29,1.78-4.25,1.11
		c-2.74-0.94-5.38-0.16-7.07,2.5c-1.64,2.59-1.47,5.2,0.44,7.53c1.87,2.28,4.42,2.69,7.08,1.61c2.89-1.17,3.91-3.59,3.65-6.56
		c-0.09-1.04-0.24-1.8,0.71-2.72c5.97-5.8,11.77-11.77,17.73-17.57c1.32-1.28,1.8-2.57,1.79-4.36c-0.07-16.34-0.08-32.68-0.05-49.02
		c0.03-19.77,0.09-39.55,0.15-59.32c0-1.78-0.26-3.67,2.57-3.56c1.18,0.05,1.73-0.98,1.72-2.18c-0.01-2.29,0-4.58-0.02-6.87
		c-0.01-0.73-0.03-1.59-0.88-1.83c-3.13-0.89-6.48-1.57-9.45-0.23c-2.26,1.02-0.81,3.76-1.08,5.72c-0.17,1.22-0.02,2.49,0.03,3.74
		c0.04,1.09,0.57,1.87,1.73,1.74c3.08-0.35,2.87,1.61,2.87,3.7C-315.77,88.62-315.76,106.21-315.76,123.8z M-394.77,343.14
		c3.84,0.06,6.58-2.51,6.67-6.25c0.09-3.49-2.7-6.34-6.25-6.38c-3.75-0.04-6.59,2.67-6.64,6.34
		C-401.02,340.53-398.49,343.09-394.77,343.14z M-413.54,349.85c3.7,0.03,6.42-2.59,6.39-6.17c-0.03-3.69-2.62-6.39-6.19-6.47
		c-3.62-0.08-6.3,2.55-6.37,6.22C-419.76,347.07-417.12,349.82-413.54,349.85z M-368.94,330.36c0.01-3.81-2.42-6.29-6.2-6.32
		c-3.72-0.02-6.27,2.48-6.35,6.23c-0.08,3.56,2.65,6.35,6.24,6.38C-371.64,336.68-368.95,333.99-368.94,330.36z M-366.95,211.2
		c3.41-0.06,6.02-2.78,5.99-6.23c-0.04-3.69-2.94-6.54-6.55-6.44c-3.51,0.1-6.03,2.91-5.93,6.61
		C-373.35,208.71-370.61,211.26-366.95,211.2z M-257.56,209.28c3.66-0.06,6.12-2.66,6.05-6.41c-0.06-3.58-2.59-6.12-6.07-6.1
		c-3.48,0.02-6.15,3.03-6.07,6.88C-263.6,206.98-261.05,209.33-257.56,209.28z"/>
	<path class="st1" d="M-269.76,338.46c0-2.81-0.32-5.67,0.08-8.42c0.55-3.78-0.94-6.52-3.72-8.6c-2.46-1.85-3.16-4.13-2.86-6.98
		c0.08-0.72,0.01-1.46-0.08-2.18c-0.32-2.5,0.08-3.37,3.13-2.73c52.82,11.11,95.59,39.32,132.57,77.49
		c17.07,17.62,31.53,37.33,45.94,57.09c2.16,2.96,2.72,6.26,2.36,9.77c-0.53,5.2-2.82,7.4-8.05,8.35
		c-10.12,1.83-20.29,3.44-30.2,6.28c-2.29,0.66-3.52-0.27-4.69-1.93c-4.06-5.79-7.91-11.75-12.28-17.3
		c-17.4-22.09-37.43-41.56-59.54-58.9c-18.89-14.82-38.92-27.78-60.91-37.57c-1.48-0.66-1.9-1.57-1.86-3.11
		c0.1-3.74,0.03-7.49,0.03-11.24C-269.8,338.46-269.78,338.46-269.76,338.46z M-142.32,435.11c0.04,3.51,2.89,6.21,6.46,6.16
		c3.47-0.05,6.25-2.96,6.19-6.47c-0.06-3.53-2.89-6.35-6.35-6.34C-139.7,428.47-142.37,431.29-142.32,435.11z M-243.31,345.75
		c0.04-3.67-2.6-6.4-6.21-6.43c-3.43-0.02-6.33,2.94-6.29,6.43c0.04,3.52,2.56,6.04,6.13,6.15
		C-245.99,352.01-243.35,349.46-243.31,345.75z M-164.96,411.95c3.35,0.06,6.14-2.71,6.19-6.12c0.05-3.43-2.85-6.39-6.3-6.45
		c-3.37-0.05-6.04,2.63-6.13,6.16C-171.29,409.07-168.54,411.89-164.96,411.95z M-208.15,367.38c3.61,0.06,6.38-2.56,6.48-6.13
		c0.1-3.49-2.64-6.39-6.15-6.51c-3.55-0.12-6.35,2.56-6.44,6.16C-214.34,364.48-211.67,367.31-208.15,367.38z M-192.69,380.59
		c0.07-3.55-2.58-6.3-6.17-6.39c-3.48-0.09-6.22,2.6-6.36,6.23c-0.13,3.49,2.64,6.35,6.16,6.36
		C-195.48,386.8-192.76,384.16-192.69,380.59z M-147.04,420.53c-0.04-3.48-2.65-6.11-6.09-6.13c-3.45-0.03-6.46,2.88-6.43,6.22
		c0.03,3.34,3.02,6.28,6.43,6.31C-149.62,426.97-146.99,424.21-147.04,420.53z M-233.42,354.86c3.4-0.02,6.14-2.71,6.16-6.07
		c0.02-3.6-2.64-6.38-6.16-6.44c-3.49-0.06-6.28,2.73-6.28,6.28C-239.69,352.23-237.02,354.88-233.42,354.86z"/>
	<path class="st1" d="M-427.84,199.37c-15.25-9.75-28.52-21.02-40.74-33.56c-20.2-20.71-37.41-43.53-49.29-70.09
		c-1.65-3.7-2.98-7.54-4.55-11.27c-0.74-1.76-0.3-2.42,1.59-2.54c13.71-0.86,27.42-1.76,41.13-2.69c2.95-0.2,4.33,1.81,5.49,3.87
		c5.27,9.35,11.23,18.25,17.81,26.72c4.79,6.17,9.84,12.11,15.4,17.61c0.81,0.8,1.55,1.5,1.53,2.87c-0.1,9.99-0.1,19.99-0.15,29.98
		c0,0.16-0.18,0.31-0.67,1.12c-1.98-2.16-4.01-4.08-5.68-6.26c-2.17-2.83-4.77-4.09-8.32-3.44c-2.25,0.41-3.96,0.04-3.46-2.91
		c0.03-0.2,0.03-0.45-0.06-0.61c-1.96-3.47-5.34-1.77-8.12-2.14c-1.98-0.26-3.34,0.7-3.62,2.94c-1.03,8.25,1.3,10.43,9.58,9.02
		c1.46-0.25,2.02-1.04,2.01-2.28c-0.02-1.77,1.04-1.85,2.41-2.01c3.53-0.43,6.2,0.47,8.75,3.26c5.33,5.83,11.07,11.29,16.73,16.82
		c1.59,1.55,2.36,3.13,2.3,5.44C-427.95,185.75-427.84,192.3-427.84,199.37z"/>
	<path class="st1" d="M-106.22,85.72c-3.09,8.43-6.32,16.4-10.32,24.02c-17.92,34.21-42.69,62.38-74.74,83.98
		c-11.66,7.86-24.26,14.08-37.07,19.85c-1.93,0.87-2.45,0.58-2.42-1.63c0.14-11.97,0.16-23.95,0.15-35.92c0-1.13,0.33-1.59,1.3-2.09
		c3.79-1.95,7.54-3.97,11.23-6.11c1.26-0.73,1.68-0.55,1.68,0.83c-0.01,5.21-0.06,10.41-0.04,15.62c0.01,1.72-1.28,1.37-2.19,1.44
		c-1.68,0.13-2.47,0.89-2.29,2.59c0.02,0.21,0,0.42-0.01,0.62c-0.24,8.2,1.21,9.45,9.39,8.32c2.2-0.3,2.95-1.66,2.47-3.48
		c-0.71-2.68,2.28-6.95-2.26-7.84c-3.03-0.6-3.52-1.54-3.48-4.24c0.08-4.77,0.52-9.58-0.27-14.31c-0.29-1.75,1.13-1.75,1.69-2.07
		c10.01-5.82,19.11-12.88,27.84-20.42c16.87-14.56,31.56-31.11,44.35-49.34c1.41-2.01,2.97-3.16,5.4-3.66
		c8.96-1.83,17.89-3.86,26.83-5.79C-108.19,85.94-107.38,85.88-106.22,85.72z M-126.38,99.1c-4.81,0.01-7.55,3.72-6.34,8.77
		c0.29,1.19,0.43,1.92-0.59,2.96c-20.02,20.42-39.98,40.92-60.32,61.02c-1.88,1.86-3.3,4.86-6.88,3.04c-0.36-0.18-1,0.14-1.49,0.3
		c-3.45,1.15-5.41,5.05-4.32,8.57c1.1,3.56,4.68,5.24,8.58,4.04c3.44-1.07,4.99-4.17,3.94-7.98c-0.34-1.24-0.94-2.16,0.44-3.5
		c21.06-20.42,41.39-41.55,61.81-62.61c1.14-1.18,2.04-1.83,3.94-1.36c4.13,1.02,7.62-1.66,8-5.69
		C-119.16,101.8-121.58,99.1-126.38,99.1z"/>
	<path class="st1" d="M-441.89,341.43c0,4.53,0.08,8.65-0.04,12.77c-0.05,1.69,0.38,2.99,1.58,4.17c4.23,4.16,8.35,8.42,12.62,12.53
		c1.41,1.36,1.82,1.99-0.21,3.29c-30.21,19.3-53.99,45.06-74.16,74.35c-2.36,3.43-4.98,5.03-8.94,5.57
		c-7.18,0.98-14.41,1.76-21.47,3.59c-1.19,0.31-2.82,0.31-1.88-1.79c4.86-10.81,7.28-22.65,12.97-33.03
		c10.5-19.18,24-36.17,40-51.13C-469.31,360.44-455.98,350.7-441.89,341.43z M-501.99,419.79c0.05-3.48-2.7-6.26-6.26-6.33
		c-3.58-0.07-6.34,2.63-6.33,6.18c0.02,3.62,2.71,6.36,6.22,6.33C-504.69,425.95-502.04,423.37-501.99,419.79z M-445.04,370.66
		c0-3.68-2.66-6.46-6.19-6.45c-3.5,0-6.07,2.56-6.14,6.12c-0.08,3.85,2.64,6.67,6.34,6.59
		C-447.51,376.85-445.04,374.26-445.04,370.66z M-515.25,428.42c-3.57,0.01-6.07,2.63-6.13,6.44c-0.05,3.44,2.57,6.1,6.05,6.15
		c3.66,0.05,6.42-2.54,6.46-6.06C-508.83,431.17-511.52,428.42-515.25,428.42z M-488.54,400.27c-3.53,0.04-6.14,2.86-6.03,6.51
		c0.1,3.43,2.75,5.95,6.27,5.98c3.81,0.03,6.43-2.67,6.32-6.52C-482.09,402.66-484.77,400.22-488.54,400.27z"/>
	<path class="st1" d="M-330.96,396.58c5.58,5.62,11.19,11.12,16.59,16.81c1.45,1.53,2.85,2.16,4.88,2.03
		c2.49-0.16,5.01,0.02,7.49-0.19c1.92-0.16,2.42,0.44,2.49,2.36c0.5,14.04,1.08,28.08,1.76,42.12c0.7,14.35,1.47,28.69,2.36,43.02
		c0.73,11.83-7.01,20.24-18.94,20.78c-8.2,0.37-14.73-2.03-18.84-9.49c-1.17-2.12-2.05-4.42-1.99-6.83
		c0.43-17.14,0.91-34.27,1.92-51.42c4.02,3.86,7.72,7.89,11.92,11.32c5.06,4.14,7.6,8.78,6.28,15.53
		c-0.77,3.94-0.45,8.09-0.59,12.15c-0.04,1.3-0.1,2.18-1.85,2.58c-2.86,0.65-4.05,3.24-3.59,6.68c0.44,3.25,2.18,4.92,5.28,5.06
		c0.62,0.03,1.27,0.09,1.87-0.04c1.72-0.36,4.07,0.69,5.01-1.53c1.14-2.71,1.69-5.6,0.24-8.45c-0.44-0.86-1.17-1.77-2.07-1.76
		c-3.24,0.03-2.81-2.06-2.71-4.16c0.27-5.82,0.32-11.66,0.76-17.47c0.16-2.13-0.48-3.52-1.89-4.92c-5.53-5.5-10.99-11.08-16.5-16.61
		c-0.96-0.96-1.8-1.82-1.75-3.42c0.51-17.79,0.94-35.59,1.41-53.38C-331.46,397.19-331.27,397.04-330.96,396.58z M-300.83,429
		c0-3.91-2.36-6.27-6.2-6.22c-3.42,0.05-5.9,2.71-5.91,6.32c0,3.62,2.47,6.11,6.08,6.11C-303.43,435.21-300.83,432.53-300.83,429z"
		/>
	<path class="st1" d="M-412.74,208.17c-4.64-2.16-8.46-4.64-12.37-6.96c-1.12-0.66-1-1.67-0.99-2.73
		c0.08-6.56-0.01-13.12,0.22-19.67c0.09-2.62-0.79-4.52-2.59-6.23c-2.57-2.43-5.04-4.97-7.61-7.39c-1.05-0.99-1.62-2-1.61-3.51
		c0.06-10.09,0.03-20.18,0.03-30.56c2.49,1.16,3.67,3.69,5.76,5.02c5.28,3.34,7.06,8.03,6.01,14c-0.97,5.54,0.71,9.9,5.59,12.95
		c6.49,4.05,8.31,9.85,7.72,17.41C-413.27,189.51-412.74,198.6-412.74,208.17z"/>
	<path class="st1" d="M-398.88,214.96c-4.02-1.96-7.33-3.65-10.72-5.17c-1.43-0.64-1.22-1.71-1.22-2.84
		c0.03-11.65-0.01-23.3,0.15-34.95c0.03-2.33-0.7-3.9-2.44-5.32c-2.82-2.3-5.39-4.91-8.27-7.12c-2.04-1.57-2.75-3.33-2.57-5.85
		c0.22-3,0.05-6.02,0.05-9.6c3.81,3.35,7.38,6.38,10.83,9.55c4.28,3.94,8.46,8,12.67,12.02c0.74,0.71,1.54,1.34,1.54,2.56
		C-398.89,183.61-398.88,198.99-398.88,214.96z"/>
	<path class="st1" d="M-385.19,219.98c-4.01-1-7.41-2.53-10.83-3.95c-1.41-0.59-0.99-1.94-0.99-3.02
		c0.04-14.57,0.07-29.14,0.22-43.72c0.02-2.15-0.02-4.08-1.88-5.56c4.06,2.59,8.1,5.22,12.2,7.74c0.93,0.57,1.29,1.21,1.29,2.25
		C-385.19,189.02-385.19,204.31-385.19,219.98z"/>
	<path class="st1" d="M-379.14,221.9c-4.5-0.79-4.45-0.79-4.44-5.12c0.04-13.33,0.03-26.66,0.07-39.98c0-1-0.29-2.06,0.35-3.18
		c2.89,1.09,4.88,2.13,4.74,6.2c-0.47,13.11-0.31,26.23-0.4,39.35C-378.82,220.08-378.6,221.04-379.14,221.9z"/>
	<path class="st1" d="M-239.17,178.47c0,6.53,0.01,12.75,0,18.96c-0.01,6.04-0.04,12.08-0.06,18.11c-0.01,2.07-2.21,4.03-4.17,3.8
		c-0.98-0.11-0.77-0.76-0.77-1.34c0.03-11.97,0.03-23.94,0.14-35.92C-244.02,179-241.1,179.59-239.17,178.47z"/>
	<path class="st1" d="M-237.25,216.87c0-7.42,0-14.8,0-22.17c0-4.16,0.3-8.35-0.06-12.49c-0.32-3.76,0.78-5.98,4.87-6.44
		c0,1.48,0.01,3.07,0,4.65c-0.08,10.41-0.34,20.82-0.16,31.23C-232.54,215.17-233.84,216.57-237.25,216.87z"/>
	<path class="st3" d="M-323.68,279.24c0.17,6.5-0.63,12.89,0.31,19.5c2.52-4.95,4.76-6.35,8.33-5.37c3.1,0.85,4.9,3.31,4.76,6.46
		c-0.16,3.43-2.24,5.18-7.32,5.94c4.38,4.53,8.55,8.99,12.9,13.27c1.77,1.74,2.87,0.25,3.8-1.31c1.59-2.66,3.66-4.57,7.09-3.91
		c2.99,0.57,4.84,2.41,5.33,5.38c0.45,2.7-0.53,4.95-2.98,6.34c-2.68,1.52-5.25,0.97-7.55-0.85c-1.68-1.33-2.77-3.72-5.61-2.62
		c-0.3,0.12-0.97-0.36-1.29-0.72c-5.39-6.2-11.69-11.49-17.97-18.17c0,4.44-0.01,8.19,0,11.95c0,1.08,0.83,1.62,1.55,2.21
		c3.15,2.55,5.87,5.53,8.66,8.45c0.94,0.98,0.68,1.88,0.67,2.82c-0.04,20.09-0.08,40.17-0.24,60.26c-0.02,2.6,0.45,3.98,3.37,3.43
		c1.71-0.33,2.32,0.46,2.46,2.21c0.69,8.92-0.14,9.77-9.07,9.19c-1.57-0.1-2.33-0.66-2.32-2.19c0.01-2.5,0.05-4.99,0.14-7.49
		c0.03-0.67-0.04-1.79,0.9-1.71c3.2,0.26,2.47-2,2.48-3.71c0.06-19.67,0.07-39.34,0.19-59.01c0.01-1.94-0.53-3.3-1.97-4.55
		c-2.59-2.25-5.01-4.69-7.61-6.93c-1.08-0.93-1.34-1.95-1.34-3.27c0.05-10.93,0.46-21.89-0.02-32.8c-0.44-9.87,0.68-19.75-0.5-29.59
		c-0.14-1.18,0.31-1.98,1.12-2.74c1.06-0.99,2.1-2.02,3.12-3.06c1.85-1.87,3.63-3.34,2.73-6.79c-1.05-3.98,2.21-7.31,6.06-7.35
		c3.7-0.04,6.64,3.29,6.22,7.05c-0.44,3.95-4.05,6.57-8.1,5.58c-1.37-0.33-2.16-0.11-2.94,0.87c-0.06,0.08-0.13,0.17-0.21,0.23
		c-4.41,3.31-6.31,7.56-5.58,13.16c0.41,3.13,0.07,6.35,0.07,9.61c4.42-1.85,6.97-1.63,8.97,0.67c1.92,2.2,2.15,5.37,0.56,7.83
		C-316.27,280.23-318.67,280.72-323.68,279.24z"/>
	<path class="st3" d="M-315.76,123.8c0-17.59-0.02-35.18,0.02-52.77c0-2.09,0.21-4.05-2.87-3.7c-1.15,0.13-1.69-0.65-1.73-1.74
		c-0.05-1.25-0.2-2.52-0.03-3.74c0.27-1.96-1.17-4.7,1.08-5.72c2.97-1.34,6.32-0.66,9.45,0.23c0.84,0.24,0.87,1.09,0.88,1.83
		c0.02,2.29,0.01,4.58,0.02,6.87c0.01,1.2-0.54,2.23-1.72,2.18c-2.83-0.11-2.56,1.78-2.57,3.56c-0.06,19.77-0.12,39.55-0.15,59.32
		c-0.02,16.34-0.01,32.68,0.05,49.02c0.01,1.8-0.47,3.08-1.79,4.36c-5.96,5.81-11.76,11.78-17.73,17.57
		c-0.95,0.93-0.8,1.68-0.71,2.72c0.26,2.97-0.76,5.39-3.65,6.56c-2.65,1.08-5.2,0.67-7.08-1.61c-1.91-2.32-2.08-4.93-0.44-7.53
		c1.69-2.67,4.33-3.44,7.07-2.5c1.96,0.67,2.98,0.22,4.25-1.11c5.23-5.5,10.51-10.96,15.86-16.34c1.29-1.29,1.73-2.6,1.72-4.39
		c-0.06-17.69-0.04-35.39-0.04-53.08C-315.81,123.8-315.79,123.8-315.76,123.8z"/>
	<path class="st3" d="M-394.77,343.14c-3.72-0.05-6.26-2.62-6.21-6.28c0.04-3.67,2.89-6.39,6.64-6.34c3.55,0.04,6.33,2.88,6.25,6.38
		C-388.19,340.64-390.92,343.2-394.77,343.14z"/>
	<path class="st3" d="M-413.54,349.85c-3.58-0.03-6.23-2.78-6.17-6.41c0.06-3.68,2.75-6.3,6.37-6.22c3.57,0.07,6.16,2.78,6.19,6.47
		C-407.12,347.26-409.83,349.88-413.54,349.85z"/>
	<path class="st3" d="M-368.94,330.36c-0.01,3.63-2.71,6.32-6.31,6.29c-3.59-0.03-6.32-2.82-6.24-6.38
		c0.08-3.75,2.64-6.26,6.35-6.23C-371.36,324.07-368.92,326.55-368.94,330.36z"/>
	<path class="st3" d="M-366.95,211.2c-3.66,0.07-6.4-2.49-6.49-6.06c-0.1-3.7,2.43-6.51,5.93-6.61c3.61-0.1,6.51,2.75,6.55,6.44
		C-360.92,208.42-363.54,211.13-366.95,211.2z"/>
	<path class="st3" d="M-257.56,209.28c-3.49,0.05-6.03-2.3-6.1-5.63c-0.07-3.85,2.59-6.86,6.07-6.88c3.49-0.02,6.01,2.52,6.07,6.1
		C-251.45,206.62-253.91,209.22-257.56,209.28z"/>
	<path class="st3" d="M-142.32,435.11c-0.05-3.83,2.62-6.64,6.3-6.65c3.46-0.01,6.29,2.82,6.35,6.34c0.06,3.51-2.72,6.41-6.19,6.47
		C-139.44,441.33-142.28,438.62-142.32,435.11z"/>
	<path class="st3" d="M-243.31,345.75c-0.04,3.72-2.68,6.26-6.37,6.15c-3.58-0.11-6.09-2.63-6.13-6.15
		c-0.04-3.49,2.86-6.46,6.29-6.43C-245.91,339.35-243.27,342.08-243.31,345.75z"/>
	<path class="st3" d="M-164.96,411.95c-3.58-0.06-6.34-2.88-6.24-6.4c0.09-3.53,2.76-6.22,6.13-6.16c3.45,0.05,6.35,3.02,6.3,6.45
		C-158.81,409.24-161.61,412.01-164.96,411.95z"/>
	<path class="st3" d="M-208.15,367.38c-3.52-0.06-6.19-2.9-6.11-6.48c0.09-3.6,2.88-6.27,6.44-6.16c3.51,0.11,6.25,3.02,6.15,6.51
		C-201.77,364.82-204.55,367.44-208.15,367.38z"/>
	<path class="st3" d="M-192.69,380.59c-0.07,3.57-2.79,6.21-6.37,6.2c-3.52-0.01-6.29-2.87-6.16-6.36c0.14-3.63,2.88-6.32,6.36-6.23
		C-195.28,374.29-192.62,377.04-192.69,380.59z"/>
	<path class="st3" d="M-147.04,420.53c0.05,3.68-2.58,6.44-6.09,6.41c-3.41-0.03-6.4-2.98-6.43-6.31c-0.03-3.34,2.98-6.25,6.43-6.22
		C-149.68,414.43-147.08,417.05-147.04,420.53z"/>
	<path class="st3" d="M-233.42,354.86c-3.6,0.02-6.28-2.63-6.28-6.23c-0.01-3.55,2.79-6.34,6.28-6.28c3.52,0.06,6.18,2.85,6.16,6.44
		C-227.28,352.14-230.01,354.84-233.42,354.86z"/>
	<path class="st3" d="M-126.38,99.1c4.8-0.01,7.22,2.69,6.77,7.55c-0.37,4.03-3.87,6.72-8,5.69c-1.9-0.47-2.8,0.18-3.94,1.36
		c-20.42,21.05-40.75,42.19-61.81,62.61c-1.38,1.34-0.79,2.26-0.44,3.5c1.05,3.81-0.5,6.91-3.94,7.98c-3.9,1.21-7.48-0.48-8.58-4.04
		c-1.08-3.52,0.88-7.42,4.32-8.57c0.49-0.16,1.14-0.48,1.49-0.3c3.58,1.83,5-1.18,6.88-3.04c20.35-20.1,40.3-40.6,60.32-61.02
		c1.02-1.04,0.88-1.76,0.59-2.96C-133.93,102.82-131.18,99.11-126.38,99.1z"/>
	<path class="st3" d="M-501.99,419.79c-0.05,3.58-2.7,6.15-6.37,6.18c-3.51,0.03-6.2-2.71-6.22-6.33c-0.02-3.55,2.75-6.25,6.33-6.18
		C-504.69,413.54-501.95,416.31-501.99,419.79z"/>
	<path class="st3" d="M-445.04,370.66c0,3.6-2.47,6.18-5.99,6.26c-3.7,0.08-6.42-2.75-6.34-6.59c0.07-3.57,2.64-6.12,6.14-6.12
		C-447.71,364.21-445.05,366.98-445.04,370.66z"/>
	<path class="st3" d="M-515.25,428.42c3.73-0.01,6.42,2.74,6.38,6.53c-0.04,3.52-2.8,6.11-6.46,6.06c-3.48-0.05-6.1-2.71-6.05-6.15
		C-521.32,431.06-518.82,428.43-515.25,428.42z"/>
	<path class="st3" d="M-488.54,400.27c3.77-0.05,6.46,2.4,6.56,5.97c0.11,3.84-2.51,6.54-6.32,6.52c-3.52-0.03-6.17-2.55-6.27-5.98
		C-494.68,403.13-492.07,400.31-488.54,400.27z"/>
	<path class="st3" d="M-300.83,429c0,3.53-2.6,6.21-6.03,6.21c-3.6,0-6.08-2.49-6.08-6.11c0-3.61,2.49-6.27,5.91-6.32
		C-303.19,422.73-300.83,425.09-300.83,429z"/>
</g>
</svg>
